<svg width="88" height="88" viewBox="0 0 88 88" fill="none" xmlns="http://www.w3.org/2000/svg">
<path d="M84.3333 14.6667V36.6667H62.3333" stroke="white" stroke-width="2" stroke-linecap="round" stroke-linejoin="round"/>
<path d="M3.66666 73.3332V51.3333H25.6667" stroke="white" stroke-width="2" stroke-linecap="round" stroke-linejoin="round"/>
<path d="M12.87 33.0001C14.7296 27.745 17.8901 23.0466 22.0567 19.3433C26.2233 15.64 31.26 13.0526 36.697 11.8224C42.1341 10.5922 47.7941 10.7594 53.149 12.3083C58.504 13.8572 63.3792 16.7374 67.32 20.6801L84.3333 36.6668M3.66666 51.3334L20.68 67.3201C24.6207 71.2628 29.496 74.143 34.851 75.6919C40.2059 77.2409 45.8659 77.408 51.3029 76.1778C56.7399 74.9476 61.7767 72.3602 65.9433 68.6569C70.1098 64.9536 73.2704 60.2552 75.13 55.0001" stroke="white" stroke-width="2" stroke-linecap="round" stroke-linejoin="round"/>
</svg>
