<svg width="88" height="88" viewBox="0 0 88 88" fill="none" xmlns="http://www.w3.org/2000/svg">
<path d="M58.6667 11H3.66667V58.6667H58.6667V11Z" stroke="white" stroke-width="2" stroke-linecap="round" stroke-linejoin="round"/>
<path d="M58.6667 29.3333H73.3333L84.3333 40.3333V58.6666H58.6667V29.3333Z" stroke="white" stroke-width="2" stroke-linecap="round" stroke-linejoin="round"/>
<path d="M20.1667 77.0001C25.2293 77.0001 29.3333 72.896 29.3333 67.8334C29.3333 62.7708 25.2293 58.6667 20.1667 58.6667C15.1041 58.6667 11 62.7708 11 67.8334C11 72.896 15.1041 77.0001 20.1667 77.0001Z" stroke="white" stroke-width="2" stroke-linecap="round" stroke-linejoin="round"/>
<path d="M67.8333 77.0001C72.8959 77.0001 77 72.896 77 67.8334C77 62.7708 72.8959 58.6667 67.8333 58.6667C62.7707 58.6667 58.6667 62.7708 58.6667 67.8334C58.6667 72.896 62.7707 77.0001 67.8333 77.0001Z" stroke="white" stroke-width="2" stroke-linecap="round" stroke-linejoin="round"/>
</svg>
