<svg width="320" height="52" viewBox="0 0 320 52" fill="none" xmlns="http://www.w3.org/2000/svg">
<path d="M85.1671 33.0827C85.1655 33.3451 85.0933 33.5868 84.9506 33.8079C84.808 34.0089 84.7661 34.2508 84.8249 34.5337C84.7433 34.6745 84.6316 34.7848 84.4898 34.8646C84.3682 34.9446 84.3268 35.0957 84.3658 35.3179C83.9406 35.5372 83.5452 35.8173 83.1798 36.158C82.8346 36.4788 82.4593 36.7892 82.0537 37.0894C81.8104 37.2695 81.5976 37.3993 81.4155 37.4789C81.2536 37.5384 81.0512 37.638 80.8081 37.7778L80.0482 38.2573C79.7039 38.4368 79.3496 38.6162 78.9852 38.7955C78.6409 38.9749 78.3266 39.205 78.0423 39.4858C77.6183 39.5033 77.1837 39.6115 76.7384 39.8105C76.293 40.0297 75.868 40.2187 75.4633 40.3776C75.3015 40.4371 75.1398 40.4765 74.9782 40.4956C74.8165 40.535 74.6546 40.5945 74.4927 40.6742L74.0069 40.883C73.7235 41.0225 73.3896 41.1616 73.0052 41.3005C72.6208 41.4595 72.2772 41.538 71.9744 41.5361C71.7923 41.6157 71.64 41.756 71.5176 41.957C70.8502 42.1748 70.1629 42.342 69.4558 42.4586C68.7487 42.5752 68.0613 42.7625 67.3936 43.0207C67.171 43.1202 66.938 43.2499 66.6948 43.4098C66.4717 43.59 66.229 43.6692 65.9667 43.6474C65.9055 43.7479 65.8644 43.8687 65.8433 44.0099C65.8223 44.151 65.7911 44.2921 65.7498 44.4331L65.659 44.4325C65.5783 44.432 65.5382 44.3914 65.5387 44.3107C65.5594 44.2301 65.5294 44.1895 65.4486 44.189C65.3881 44.1886 65.3477 44.1984 65.3273 44.2185C65.0646 44.2774 64.812 44.3262 64.5696 44.365C64.3473 44.404 64.0949 44.4226 63.8124 44.4208C63.6509 44.4198 63.3887 44.3979 63.0257 44.3552C62.6828 44.3127 62.4309 44.2606 62.2698 44.199C62.1491 44.1377 62.0489 44.0261 61.9692 43.8641C61.8895 43.7022 61.8098 43.5301 61.7303 43.3479C61.6709 43.1659 61.6116 42.9738 61.5523 42.7716C61.5131 42.5897 61.4737 42.4381 61.4341 42.3167C61.496 42.0951 61.5981 41.9141 61.7403 41.7738C61.8825 41.6334 61.9946 41.4525 62.0768 41.231C62.2585 41.2119 62.4403 41.1828 62.6222 41.1436C62.8041 41.1044 62.9858 41.0955 63.1673 41.1168C63.7941 40.9391 64.4209 40.7615 65.0477 40.5838C65.6946 40.4265 66.3314 40.259 66.9582 40.0813C67.585 39.9037 68.2018 39.7058 68.8087 39.4876C69.4155 39.2695 70.0026 39.0007 70.5697 38.6814L71.2054 38.6855C71.57 38.4859 71.9747 38.317 72.4196 38.1785C72.8645 38.0401 73.2293 37.8103 73.5139 37.4892C74.1808 37.3521 74.8783 37.1648 75.6064 36.9273C76.3344 36.6897 76.9423 36.3101 77.43 35.7885C77.733 35.75 77.9958 35.6811 78.2185 35.5816C78.4413 35.4619 78.6539 35.3421 78.8565 35.2223L79.4645 34.8326C79.6672 34.6926 79.9 34.5831 80.1629 34.5041C80.3254 34.3436 80.4778 34.1731 80.6202 33.9923C80.7627 33.8116 80.9352 33.6613 81.1378 33.5415C81.0793 33.2182 80.9194 32.975 80.658 32.8119C80.3967 32.6487 80.1658 32.4555 79.9654 32.2323L79.2994 32.228C78.7767 31.9018 78.2132 31.656 77.6087 31.4907C77.0246 31.3053 76.4406 31.1099 75.8566 30.9043C75.8163 30.8839 75.766 30.8735 75.7054 30.8731C75.5641 30.8722 75.473 30.9221 75.432 31.0227C75.4112 31.1235 75.3302 31.1634 75.189 31.1423C75.0082 31.02 74.8169 30.9482 74.6152 30.9267C74.4136 30.8851 74.2019 30.8635 73.9799 30.8621C73.6973 30.8603 73.4146 30.8787 73.1318 30.9173C72.8693 30.9358 72.5968 30.9441 72.3143 30.9424C72.173 30.9415 72.0318 30.9305 71.8906 30.9094C71.7495 30.8883 71.6085 30.8369 71.4678 30.7553L71.0742 30.7528C70.6504 30.7501 70.2265 30.7676 69.8024 30.8053C69.3986 30.8229 68.9949 30.8304 68.5913 30.8279C68.3693 30.8264 68.1574 30.8251 67.9556 30.8238C67.7539 30.8023 67.5522 30.7708 67.3507 30.7291C66.9256 30.9283 66.4706 31.0666 65.9857 31.1443C65.5008 31.2219 64.9959 31.2793 64.4709 31.3163C63.9661 31.3535 63.4613 31.3906 62.9565 31.4278C62.4518 31.4447 61.9671 31.4921 61.5024 31.5699C61.3815 31.5489 61.2605 31.5381 61.1394 31.5373C61.0386 31.5165 60.9377 31.5057 60.8368 31.5051C60.7359 31.5045 60.6249 31.5138 60.5036 31.5333C60.4027 31.5326 60.3018 31.5421 60.2007 31.5616C59.9401 31.2774 59.6185 31.0735 59.2358 30.95C58.8735 30.8064 58.5108 30.7133 58.1477 30.6706C57.8674 30.3257 57.6577 29.9813 57.5186 29.6373C57.3998 29.2732 57.3216 28.8691 57.2841 28.4248L57.4052 28.4256C57.5464 28.4265 57.6074 28.3562 57.5882 28.2148C57.5891 28.0736 57.6403 27.9528 57.7418 27.8525C57.8435 27.7321 57.9752 27.6522 58.1369 27.6129C58.3189 27.5535 58.4909 27.494 58.6527 27.4345C58.8146 27.375 58.9664 27.3053 59.1082 27.2255C59.2703 27.1256 59.3923 26.975 59.4743 26.7737L59.8679 26.7762C59.9486 26.7767 60.0293 26.7873 60.1099 26.808C60.2108 26.8086 60.2913 26.8394 60.3515 26.9004C60.4327 26.8201 60.5341 26.7502 60.6555 26.6904C60.777 26.6306 60.8884 26.5708 60.9897 26.5109C61.1112 26.4511 61.2125 26.3811 61.2938 26.3009C61.375 26.2207 61.4262 26.0999 61.4474 25.9386C61.4672 25.9992 61.5175 26.0298 61.5982 26.0303C61.679 26.0309 61.7497 26.0111 61.8105 25.9711C61.8915 25.9313 61.9824 25.9218 62.0832 25.9426C62.1859 25.6607 62.3584 25.5104 62.6007 25.4918C62.843 25.4731 63.0655 25.4039 63.268 25.2841C63.4098 25.2043 63.5416 25.1143 63.6633 25.0142C63.7852 24.8938 63.9171 24.7837 64.059 24.6837L65.8842 23.3027L68.6828 21.2013C69.6157 20.5008 70.5684 19.8509 71.541 19.2517C71.5821 19.1308 71.6432 19.0404 71.7243 18.9803C71.8054 18.9203 71.8866 18.8603 71.9677 18.8003C72.0489 18.72 72.11 18.6397 72.1508 18.5592C72.2119 18.4789 72.2329 18.3579 72.2137 18.1963C72.4966 18.1376 72.7092 18.0279 72.8515 17.8674C73.014 17.707 73.1564 17.5363 73.2786 17.3554C73.401 17.1544 73.5233 16.9634 73.6456 16.7826C73.7881 16.5816 73.9707 16.4314 74.1934 16.3319C74.1736 16.2713 74.1641 16.1804 74.1648 16.0593C74.1659 15.8978 74.177 15.7364 74.1982 15.5751C74.2396 15.4139 74.3212 15.2732 74.4431 15.1528C74.2641 14.7279 73.9532 14.4231 73.5104 14.2387C73.0677 14.034 72.6449 13.8598 72.2422 13.716L72.1514 13.7154C72.0505 13.7147 71.9896 13.7648 71.9688 13.8656C71.9683 13.9463 71.9174 14.0065 71.8163 14.0463C71.4939 13.9635 71.1308 13.9208 70.7272 13.9182C70.3236 13.9157 69.9197 13.9434 69.5157 14.0014C69.1319 14.0595 68.7383 14.0671 68.3349 14.0241C68.2738 14.1045 68.2027 14.1847 68.1214 14.265C68.0604 14.3453 67.9792 14.4154 67.8779 14.4753C67.454 14.4928 67.0297 14.5507 66.6053 14.6489L65.3319 14.9435L64.6347 15.0905C64.5335 15.1302 64.4624 15.2004 64.4214 15.301C64.3804 15.4017 64.3494 15.5125 64.3285 15.6334C64.2075 15.6125 64.1271 15.5615 64.0873 15.4805C64.0676 15.3997 63.9973 15.3387 63.8765 15.2975C63.4105 15.5771 62.9045 15.806 62.3584 15.9842C61.8325 16.1625 61.3565 16.442 60.9302 16.8228C60.79 16.6604 60.5887 16.5784 60.3263 16.5768C60.1043 16.5753 59.8617 16.6444 59.5984 16.784C59.3351 16.9236 59.1725 17.1043 59.1106 17.3259C58.909 17.2842 58.7578 17.2631 58.6569 17.2624C58.4349 17.261 58.2427 17.3204 58.0805 17.4404C57.9385 17.5606 57.7963 17.701 57.654 17.8615C57.5118 18.0019 57.3596 18.1422 57.1972 18.2825C57.0349 18.4227 56.8325 18.5022 56.5902 18.5208C56.5896 18.6217 56.5889 18.7327 56.5881 18.8538C56.6076 18.9548 56.617 19.0659 56.6163 19.187C56.6105 20.0952 56.5543 21.003 56.4476 21.9106C56.341 22.798 56.2848 23.6957 56.2791 24.6039C56.2778 24.8057 56.2866 25.0076 56.3055 25.2096C56.3245 25.3913 56.3333 25.5932 56.3319 25.8152C56.3315 25.8758 56.2802 26.0066 56.178 26.2078C56.096 26.4091 56.0345 26.5601 55.9935 26.6607C56.0728 26.8832 56.1017 27.1054 56.0801 27.3273C56.0787 27.5493 56.1278 27.7615 56.2274 27.964C56.0448 28.1243 55.9525 28.3457 55.9507 28.6283C55.95 28.7494 55.9492 28.8705 55.9484 28.9915C55.9678 29.1128 55.9772 29.2339 55.9764 29.355L55.9741 29.7183C55.911 30.1215 55.868 30.535 55.8451 30.9587C55.8223 31.3622 55.8097 31.7658 55.8071 32.1694C55.806 32.3511 55.804 32.6639 55.8011 33.1079C55.8186 33.5318 55.8458 34.0164 55.8827 34.5615C55.9197 35.0865 55.9768 35.6318 56.054 36.1974C56.1311 36.763 56.2287 37.2884 56.3467 37.7736C56.485 38.2386 56.6541 38.6232 56.854 38.9272C57.0539 39.2312 57.2951 39.3841 57.5777 39.3859C57.6382 39.3863 57.7089 39.3766 57.7898 39.357C57.8908 39.3374 57.9416 39.2873 57.9421 39.2066C57.9426 39.1259 57.9229 39.0551 57.8829 38.9943C57.8631 38.9336 57.8534 38.8629 57.854 38.7822L57.8846 38.7218C58.0456 38.8036 58.2168 38.8551 58.3983 38.8765C58.6 38.8979 58.8017 38.9194 59.0034 38.9409C59.2051 38.9623 59.3966 38.9938 59.578 39.0353C59.7592 39.097 59.92 39.2091 60.0602 39.3714C59.9785 39.5324 59.937 39.7037 59.9359 39.8853C59.9343 40.1275 59.9934 40.3499 60.1133 40.5524C60.2329 40.7752 60.3123 40.9977 60.3512 41.22C59.967 41.3386 59.613 41.4676 59.2892 41.6068C58.9854 41.7663 58.6818 41.9057 58.3783 42.0248C58.0746 42.1642 57.751 42.2832 57.4072 42.382C57.0634 42.5009 56.6693 42.5791 56.225 42.6166C55.9437 42.4332 55.7025 42.2702 55.5016 42.1276C55.3007 41.9851 55.0288 41.8925 54.6859 41.85C54.1657 41.1403 53.7369 40.3403 53.3994 39.4502C53.0619 38.5801 52.7952 37.6702 52.5994 36.7204C52.4238 35.7707 52.2986 34.8213 52.2239 33.8722C52.1696 32.9031 52.1451 31.9948 52.1505 31.1471C52.1564 30.2188 52.1925 29.3007 52.2588 28.3929C52.3454 27.465 52.4522 26.5373 52.5792 25.6097C52.6214 25.3274 52.6636 25.0451 52.7057 24.7628C52.748 24.4604 52.7902 24.168 52.8324 23.8857C52.8734 23.785 52.9044 23.6742 52.9253 23.5533C52.9666 23.4122 52.9875 23.2913 52.9882 23.1904C52.9904 22.8473 52.9825 22.5041 52.9645 22.1609C52.9465 21.8177 52.9385 21.4846 52.9405 21.1617C52.9438 20.6572 52.9773 20.1427 53.0412 19.6184C53.062 19.5176 53.0931 19.3866 53.1345 19.2254C53.1961 19.0643 53.2272 18.9232 53.228 18.8022C53.229 18.6407 53.1894 18.5294 53.109 18.4684C53.0287 18.4073 52.9587 18.306 52.8991 18.1643C52.9609 17.9629 53.0126 17.7715 53.0541 17.5901C53.0957 17.3885 53.1172 17.1868 53.1185 16.985C53.1209 16.6016 53.0524 16.2681 52.9129 15.9847C53.0172 15.4606 53.1718 14.9469 53.3768 14.4436C53.5819 13.9404 53.9375 13.5592 54.4437 13.3C54.8472 13.3228 55.2506 13.3657 55.6538 13.4288C56.0773 13.492 56.4395 13.6659 56.7404 13.9504C56.8822 13.8705 57.044 13.8211 57.2257 13.8021L57.8013 13.7452C58.0032 13.7263 58.1851 13.6972 58.3468 13.6579C58.5086 13.5983 58.6506 13.4882 58.7727 13.3275C59.1769 13.2494 59.6115 13.1411 60.0766 13.0028C60.5418 12.8443 60.9466 12.6653 61.2909 12.4656L61.9569 12.4699C62.0989 12.3698 62.2608 12.3002 62.4427 12.261L63.0188 12.1133C63.221 12.0541 63.403 11.9947 63.5649 11.9351C63.7469 11.8758 63.8888 11.7757 63.9906 11.6351L64.1117 11.6359C64.5759 11.6388 65.0306 11.5408 65.4759 11.3418C65.9212 11.1428 66.3563 10.9639 66.7811 10.8052C66.8823 10.7655 67.0341 10.6958 67.2365 10.5962C67.4592 10.4967 67.6109 10.4472 67.6916 10.4477C67.9744 10.4091 68.2571 10.3907 68.5396 10.3925C68.8223 10.3742 69.1051 10.3356 69.388 10.2768C70.0345 10.18 70.6709 10.0731 71.2973 9.95597C71.9441 9.8188 72.5903 9.75227 73.2361 9.75638C73.4581 9.75779 73.6599 9.76917 73.8414 9.7905C74.0432 9.79179 74.2551 9.80323 74.4769 9.82482C74.4966 9.90568 74.5466 9.97663 74.627 10.0377C74.7074 10.0786 74.7778 10.1194 74.8381 10.1601C74.9186 10.201 74.9888 10.262 75.0489 10.3431C75.109 10.404 75.1286 10.495 75.1077 10.616C75.1478 10.6566 75.188 10.677 75.2284 10.6773C75.2889 10.6777 75.3396 10.6477 75.3803 10.5874C75.4413 10.5273 75.5222 10.4975 75.6231 10.4981L75.7744 10.4991C76.035 10.7833 76.2856 11.0574 76.5261 11.3213C76.7869 11.5651 77.1085 11.769 77.4909 11.9329C77.6486 12.5394 77.8365 13.136 78.0548 13.7227C78.273 14.3093 78.3801 14.9357 78.3758 15.6017C78.3733 16.0053 78.3102 16.3985 78.1867 16.7812C77.9032 16.9206 77.7 17.1414 77.577 17.4433C77.454 17.7453 77.3411 18.0372 77.2384 18.3191C76.6715 18.5981 76.1949 18.9684 75.8085 19.4302C75.4221 19.8919 75.0256 20.3536 74.619 20.8152L74.1346 20.8121C74.0539 20.8116 73.9931 20.8415 73.9524 20.9018L73.678 21.2028C73.4953 21.3631 73.2925 21.5233 73.0695 21.6833C72.8666 21.8435 72.7139 22.0544 72.6113 22.3161C71.9835 22.6552 71.3756 23.0349 70.7876 23.455C70.2199 23.8752 69.6721 24.3157 69.1444 24.7766C68.9213 24.9568 68.6979 25.1673 68.4744 25.4081C68.251 25.6286 68.0278 25.819 67.8047 25.979C67.683 26.0791 67.5412 26.1691 67.3792 26.2488C67.2375 26.3084 67.1058 26.3883 66.9841 26.4884C66.7204 26.6886 66.4769 26.899 66.2535 27.1195C66.0302 27.32 65.7969 27.5102 65.5536 27.6903C66.462 27.6557 67.3804 27.6414 68.3088 27.6473C69.2373 27.633 70.1557 27.6187 71.064 27.6043C71.5282 27.6072 71.9823 27.6 72.4265 27.5826C72.8707 27.5451 73.3249 27.5278 73.7891 27.5308C73.8699 27.5313 73.9404 27.5519 74.0007 27.5927C74.0611 27.6132 74.1316 27.6339 74.2122 27.6546C74.5549 27.7173 74.8572 27.7898 75.119 27.8722C76.0866 28.06 77.0543 28.2277 78.0221 28.3751C78.99 28.5225 79.937 28.7606 80.8633 29.0895C81.1251 29.192 81.3161 29.3043 81.4364 29.4261C81.5769 29.5481 81.8189 29.5799 82.1624 29.5216C82.4431 29.8059 82.7444 30.0298 83.0663 30.1933C83.4084 30.357 83.7506 30.5004 84.0929 30.6237C84.3527 31.029 84.5924 31.414 84.8121 31.7787C85.052 32.1435 85.1703 32.5782 85.1671 33.0827Z" fill="white"/>
<path d="M106.054 19.1079L106.054 19.229C105.912 19.2684 105.841 19.3689 105.84 19.5304C105.617 19.6298 105.384 19.7091 105.142 19.7681C104.899 19.8069 104.667 19.8761 104.444 19.9756C104.222 19.954 103.99 19.9424 103.748 19.9409C103.526 19.9193 103.304 19.9078 103.082 19.9064C102.477 19.9025 101.871 19.9189 101.266 19.9554C100.66 19.9919 100.054 19.988 99.4492 19.9438C99.1657 20.1035 98.852 20.2327 98.5083 20.3314C98.1848 20.4101 97.8718 20.4484 97.569 20.4465C97.3269 20.445 97.1151 20.4134 96.9339 20.3517C96.448 20.5908 95.9119 20.7892 95.3256 20.9469C94.7595 21.1048 94.1832 21.2626 93.5969 21.4203C93.0108 21.5578 92.4446 21.7258 91.8984 21.9242C91.3725 22.1025 90.9067 22.3619 90.5008 22.7024C90.4587 22.9847 90.4266 23.267 90.4046 23.5494C90.3828 23.8117 90.371 24.074 90.3693 24.3363C90.3676 24.6189 90.376 24.8813 90.3946 25.1236C90.4334 25.3661 90.5025 25.6087 90.6019 25.8515C90.7026 25.8925 90.8134 25.9235 90.9343 25.9445C91.0755 25.9655 91.1965 25.9764 91.2974 25.9771C91.3983 25.9777 91.4993 25.9682 91.6003 25.9487C91.7015 25.909 91.7726 25.8388 91.8136 25.7381C92.1166 25.6997 92.4194 25.6915 92.722 25.7136C93.0247 25.7156 93.3274 25.7175 93.6302 25.7194C93.9329 25.7213 94.2256 25.7131 94.5083 25.6947C94.8111 25.6765 95.1041 25.6279 95.3871 25.549C95.7106 25.4703 96.0237 25.4218 96.3265 25.4036C96.6496 25.3854 96.9625 25.3672 97.2654 25.349C97.5682 25.3307 97.8813 25.3024 98.2044 25.2641C98.5277 25.2056 98.8614 25.0968 99.2055 24.9375C99.4673 25.0401 99.7293 25.0922 99.9917 25.0939C100.274 25.0957 100.547 25.1176 100.809 25.1596C100.949 25.2614 101.06 25.3731 101.14 25.4947C101.24 25.6165 101.289 25.758 101.288 25.9195C101.286 26.202 101.184 26.484 100.98 26.7652C100.776 27.0465 100.613 27.3078 100.491 27.5492L100.158 27.5471C99.6734 27.544 99.1986 27.6116 98.7336 27.75C98.2888 27.8682 97.8337 28.0167 97.3684 28.1954C96.9234 28.354 96.4683 28.5025 96.0032 28.6408C95.5584 28.7591 95.0939 28.8167 94.6095 28.8136C94.5288 28.8131 94.478 28.8632 94.4572 28.964C94.4567 29.0447 94.4361 29.1052 94.3955 29.1453C94.2947 29.1244 94.1434 29.1134 93.9416 29.1121C93.4774 29.1091 93.0331 29.1568 92.6086 29.255C92.1842 29.3532 91.7499 29.4009 91.3059 29.3981C91.1848 29.3973 91.0637 29.3965 90.9427 29.3958C90.8217 29.3748 90.7007 29.3539 90.5798 29.3329C90.4778 29.4937 90.3459 29.6039 90.1841 29.6634C90.0224 29.7027 89.8705 29.7825 89.7285 29.9027C89.6668 30.084 89.625 30.3057 89.6031 30.5679C89.6015 30.8303 89.5896 31.1027 89.5677 31.3851C89.566 31.6475 89.5442 31.8996 89.5023 32.1415C89.4604 32.3835 89.3785 32.5747 89.2565 32.7152C89.276 32.8162 89.3565 32.8571 89.4979 32.8378C89.6394 32.7983 89.7097 32.8593 89.7086 33.0208C89.7075 33.2024 89.6861 33.394 89.6444 33.5956C89.6028 33.7972 89.5813 33.9989 89.58 34.2007C89.5776 34.5841 89.6153 35.0082 89.693 35.4729C89.7911 35.9175 89.9298 36.3322 90.109 36.7168C90.3083 37.1015 90.5687 37.4261 90.8899 37.6905C91.2113 37.9348 91.6141 38.0584 92.0985 38.0615C92.4214 38.0635 92.7245 38.0049 93.0078 37.8856C93.2912 37.7663 93.5245 37.566 93.708 37.2846L93.8595 37.2553C93.9402 37.2558 94.0108 37.2663 94.0712 37.2869C94.1518 37.3076 94.2325 37.3182 94.3132 37.3187C94.4343 37.3195 94.5861 37.2498 94.7687 37.1097C94.9715 36.9495 95.1846 36.7692 95.4079 36.5688C95.6513 36.3686 95.8947 36.1784 96.1381 35.9983C96.3815 35.798 96.6145 35.6582 96.837 35.5789C96.9801 35.2972 97.1131 35.0155 97.236 34.7337C97.379 34.4521 97.5823 34.2314 97.8457 34.0716L97.8513 33.1937C98.0545 32.973 98.2677 32.7725 98.4908 32.5923C98.7342 32.4122 98.9173 32.1812 99.0402 31.8995C99.1408 31.9405 99.2315 31.9713 99.3121 31.992C99.4128 32.0128 99.5137 32.0236 99.6146 32.0242C99.7155 32.0249 99.8165 32.0154 99.9175 31.9959C100.039 31.9765 100.15 31.9469 100.251 31.9072C100.411 32.1302 100.531 32.3832 100.61 32.6663C100.709 32.9293 100.828 33.1823 100.968 33.4254C100.784 33.7875 100.569 34.2201 100.324 34.7231C100.079 35.2261 99.813 35.729 99.5273 36.2318C99.2415 36.7345 98.9357 37.2169 98.6098 37.6791C98.3043 38.1211 97.9994 38.4623 97.6951 38.7026C97.6342 38.7627 97.5026 38.8325 97.3002 38.912C97.0772 39.072 96.8744 39.2221 96.6919 39.3622C96.5092 39.5225 96.3365 39.7031 96.1738 39.9039C95.5873 40.0818 95.0207 40.3204 94.4739 40.6196C93.9472 40.919 93.4206 41.2083 92.8941 41.4875C92.6523 41.4254 92.3901 41.3935 92.1076 41.3917C91.8654 41.3902 91.6232 41.3987 91.3808 41.4173C91.1384 41.4562 90.8759 41.4747 90.5934 41.4729C90.5133 41.3715 90.3926 41.3001 90.2314 41.2587C90.0903 41.2376 90.0405 41.1364 90.082 40.955C89.3961 40.9102 88.8423 40.715 88.4207 40.3692C87.9989 40.0436 87.6382 39.6376 87.3385 39.1514C87.0591 38.6652 86.8303 38.139 86.6523 37.5727C86.4742 37.0065 86.286 36.4604 86.0875 35.9344L86.0881 35.8435C86.0887 35.7426 86.1295 35.6823 86.2103 35.6627C86.2912 35.643 86.3319 35.5827 86.3326 35.4818C86.3328 35.4414 86.3229 35.4111 86.3029 35.3908C86.2437 35.1684 86.1945 34.9764 86.1552 34.8146C86.1158 34.6529 86.0969 34.4611 86.0983 34.2391C86.1003 33.9162 86.1225 33.6035 86.1648 33.301C86.2072 32.9783 86.2294 32.6556 86.2315 32.3327C86.2335 32.0097 86.195 31.7269 86.1158 31.4842C86.1972 31.3838 86.2686 31.2531 86.3302 31.092C86.3717 30.9107 86.4032 30.7292 86.4245 30.5477C86.4458 30.3662 86.4571 30.1846 86.4582 30.003C86.4796 29.8215 86.5109 29.6602 86.5521 29.5192C86.4728 29.2967 86.4034 29.1045 86.3439 28.9427C86.2845 28.7607 86.2556 28.5486 86.2571 28.3064L86.2585 28.0945C86.4625 27.7527 86.6362 27.4006 86.7798 27.0382C86.9234 26.6758 87.0771 26.3034 87.241 25.921L87.2416 25.8302C87.2453 25.2449 87.2289 24.6595 87.1922 24.0739C87.1556 23.4884 87.1391 22.903 87.1429 22.3177L87.1465 21.7426C87.1478 21.5407 87.1591 21.3491 87.1805 21.1676C87.3424 21.0879 87.4642 20.9776 87.5458 20.8369C87.6275 20.6961 87.7493 20.5859 87.9112 20.5062L88.9102 20.5125L89.0938 20.211C89.155 20.1104 89.1961 19.9997 89.217 19.8787C89.4394 19.8196 89.6518 19.7402 89.8543 19.6406C90.0771 19.5209 90.2796 19.4011 90.4621 19.2812C90.7456 19.1215 90.9988 18.9818 91.2216 18.8622C91.4646 18.7224 91.6974 18.6129 91.92 18.5336C92.1628 18.4342 92.4156 18.3551 92.6783 18.2962C92.9411 18.2373 93.2441 18.1888 93.5875 18.1506C93.7489 18.1517 93.85 18.122 93.8908 18.0617C93.9517 18.0016 94.0329 17.9315 94.1343 17.8514C94.3762 17.8933 94.6182 17.9352 94.8601 17.9771C95.1021 17.9988 95.3443 18.0104 95.5864 18.012C96.0708 18.0151 96.5255 17.9271 96.9504 17.7482C97.5559 17.752 98.1513 17.7457 98.7367 17.7293C99.3423 17.7129 99.9478 17.7067 100.553 17.7106C101.078 17.7139 101.603 17.7374 102.127 17.7811C102.652 17.8248 103.166 17.8987 103.67 18.0028C103.852 17.9435 104.054 17.9145 104.276 17.9159C104.518 17.9174 104.76 17.9492 105.002 18.0113C105.264 18.0534 105.516 18.055 105.758 18.0161C105.777 18.2383 105.826 18.4303 105.906 18.5923C106.006 18.7342 106.056 18.9061 106.054 19.1079Z" fill="white"/>
<path d="M127.016 36.2855C126.953 36.5677 126.821 36.7989 126.618 36.9793C126.435 37.1396 126.212 37.2693 125.949 37.3686C125.686 37.4678 125.413 37.5367 125.131 37.5753C124.868 37.5938 124.626 37.6023 124.404 37.6009C124.303 37.6003 124.202 37.5997 124.101 37.599C124.021 37.5783 123.93 37.5676 123.829 37.567C123.728 37.5664 123.677 37.6165 123.677 37.7174C123.676 37.8183 123.625 37.8886 123.524 37.9284C123.423 37.8873 123.322 37.8564 123.222 37.8356C123.121 37.8148 123.02 37.8041 122.919 37.8034C122.778 37.8025 122.637 37.8117 122.495 37.831C122.374 37.8504 122.253 37.8597 122.132 37.859C121.97 37.8579 121.849 37.837 121.769 37.7961C121.708 37.7553 121.648 37.7146 121.588 37.6738C121.548 37.613 121.498 37.5522 121.438 37.4912C121.398 37.4304 121.327 37.3795 121.227 37.3385C121.086 37.2771 120.965 37.2662 120.864 37.306C120.783 37.3458 120.652 37.2844 120.471 37.1218C120.23 36.9185 120.02 36.6749 119.84 36.3912C119.681 36.0875 119.521 35.7736 119.362 35.4497C119.202 35.1257 119.033 34.8017 118.853 34.4777C118.674 34.1536 118.464 33.8697 118.223 33.626L117.981 33.6245C117.617 33.6221 117.364 33.7719 117.221 34.0737C117.121 34.0125 117.02 33.9413 116.92 33.8599C116.819 33.7583 116.709 33.6769 116.588 33.6156C116.123 33.7539 115.638 33.8719 115.133 33.9696C114.628 34.0673 114.123 34.1146 113.618 34.1114L113.194 34.1087C113.073 34.1079 112.942 34.0869 112.801 34.0456C112.599 34.1251 112.417 34.2248 112.254 34.3449C112.092 34.4448 111.91 34.4941 111.709 34.4928C111.587 34.492 111.446 34.4508 111.285 34.369C111.164 34.3682 111.103 34.4183 111.103 34.5192C111.122 34.6202 111.062 34.6703 110.92 34.6694L110.648 34.6677C110.365 34.6659 110.083 34.6742 109.8 34.6926C109.537 34.7111 109.265 34.7194 108.982 34.7176C108.599 34.7152 108.206 34.6622 107.803 34.5588C107.701 34.6187 107.59 34.6482 107.469 34.6475C107.388 34.6873 107.327 34.7576 107.286 34.8582C107.245 34.9387 107.204 35.0192 107.164 35.0996C107.123 35.1599 107.062 35.2201 106.981 35.2801C106.92 35.3201 106.829 35.3296 106.708 35.3087C106.666 35.5506 106.564 35.7417 106.402 35.8819C106.239 36.0222 106.157 36.2336 106.155 36.5161C105.933 36.6358 105.75 36.786 105.608 36.9667C105.465 37.1475 105.323 37.3383 105.18 37.5392C105.038 37.7401 104.885 37.9309 104.722 38.1115C104.58 38.2922 104.397 38.4324 104.175 38.5319C104.073 38.6523 104.042 38.8438 104.08 39.1065C103.857 39.2867 103.584 39.4464 103.26 39.5856C102.936 39.7249 102.633 39.7936 102.35 39.7918C101.765 39.788 101.363 39.4727 101.145 38.8456C101.147 38.6438 101.168 38.432 101.21 38.2103C101.232 37.9682 101.274 37.7465 101.335 37.545C101.397 37.3234 101.489 37.1323 101.611 36.9716C101.734 36.7907 101.906 36.6606 102.129 36.5813C102.13 36.3997 102.07 36.2782 101.949 36.2169C101.829 36.1354 101.779 36.0039 101.8 35.8224C102.347 35.5635 102.823 35.2234 103.23 34.8021C103.636 34.3809 104.002 33.9392 104.328 33.4771C104.674 32.9949 105.02 32.5127 105.367 32.0305C105.713 31.5483 106.099 31.1169 106.525 30.7361L106.529 30.1004C107.139 29.4584 107.537 28.7344 107.724 27.9282C107.946 27.8893 108.088 27.7893 108.15 27.6282C108.231 27.4673 108.273 27.2758 108.274 27.0538C108.375 27.0544 108.436 27.0145 108.457 26.9339C108.498 26.8332 108.589 26.8035 108.73 26.8448C108.914 26.3616 109.119 25.9189 109.344 25.5166C109.568 25.1144 109.793 24.7122 110.017 24.3099C110.242 23.8875 110.437 23.4548 110.601 23.0119C110.785 22.569 110.92 22.0754 111.004 21.531C111.286 21.5126 111.439 21.3824 111.46 21.1404C111.502 20.8782 111.544 20.6464 111.586 20.4448C111.89 20.1642 112.115 19.8326 112.258 19.4501C112.422 19.0676 112.566 18.675 112.69 18.2721C112.813 17.8491 112.947 17.4362 113.091 17.0335C113.255 16.6107 113.48 16.2387 113.764 15.9176L113.765 15.8268C113.765 15.7259 113.725 15.6651 113.645 15.6444C113.564 15.6035 113.524 15.5326 113.525 15.4317C113.545 15.4116 113.556 15.3915 113.556 15.3713C113.799 15.272 113.981 15.1117 114.104 14.8904C114.226 14.649 114.409 14.4786 114.652 14.3793C115.074 14.7251 115.446 14.9393 115.768 15.0221C116.09 15.0847 116.514 15.1379 117.038 15.1816C117.299 15.4658 117.438 15.8098 117.456 16.2135C117.494 16.5973 117.562 16.9812 117.66 17.3653C117.818 18.0121 117.985 18.6489 118.163 19.2757C118.361 19.8825 118.508 20.5091 118.605 21.1555C118.663 21.5394 118.772 21.9033 118.931 22.2475C119.09 22.5916 119.199 22.9455 119.257 23.3091C119.296 23.5919 119.294 23.9148 119.251 24.2779C119.209 24.6207 119.247 24.9237 119.366 25.1868L119.575 25.6725C119.675 25.8952 119.754 26.1278 119.813 26.3703C119.892 26.613 119.961 26.8557 120.02 27.0982C120.178 27.7047 120.315 28.3615 120.432 29.0687C120.569 29.7557 120.776 30.3827 121.055 30.9496C121.155 31.1521 121.306 31.2943 121.507 31.3763C121.728 31.4585 121.97 31.5206 122.232 31.5626C122.494 31.5844 122.747 31.5961 122.989 31.5977C123.251 31.5792 123.473 31.5705 123.655 31.5716L123.958 31.5736C124.079 31.5743 124.2 31.5953 124.321 31.6364C124.4 31.7984 124.44 31.9399 124.439 32.061C124.438 32.3032 124.356 32.4944 124.193 32.6347C124.031 32.7749 123.949 32.9358 123.948 33.1175C123.947 33.2184 123.987 33.3296 124.067 33.4512C123.986 33.4306 123.865 33.4197 123.704 33.4187C123.24 33.4157 122.785 33.4936 122.34 33.6522C122.499 33.9963 122.709 34.2903 122.97 34.5341C123.251 34.7579 123.543 34.9717 123.844 35.1755C124.047 35.0153 124.259 34.9359 124.481 34.9373C124.724 34.9389 124.945 35.0008 125.146 35.1232C125.368 35.2255 125.599 35.2774 125.841 35.279C126.023 35.2801 126.154 35.2507 126.236 35.1907C126.396 35.3733 126.526 35.5659 126.625 35.7684C126.725 35.9506 126.855 36.123 127.016 36.2855ZM117.571 31.3816C117.533 31.0382 117.464 30.7956 117.364 30.6537C117.284 30.4917 117.215 30.2995 117.156 30.0771C117.077 29.7941 117.018 29.491 116.98 29.1678C116.962 28.8448 116.923 28.5317 116.865 28.2286C116.728 27.5415 116.571 26.8543 116.393 26.1669C116.236 25.4797 116.029 24.8124 115.77 24.1649C115.852 24.0443 115.893 23.9336 115.894 23.8327L115.894 23.7418C115.714 23.5389 115.584 23.2959 115.505 23.0128C115.426 22.7096 115.348 22.4164 115.269 22.1333C115.21 21.8302 115.121 21.5572 115.001 21.3142C114.902 21.0512 114.732 20.8382 114.491 20.6752C114.429 20.7959 114.398 20.937 114.397 21.0985C114.396 21.2398 114.406 21.371 114.425 21.4922C114.465 21.6136 114.484 21.7449 114.483 21.8862C114.281 21.9858 114.128 22.1463 114.026 22.3676C113.944 22.5689 113.802 22.7295 113.599 22.8493C113.433 23.4941 113.197 24.1082 112.891 24.6915C112.585 25.2547 112.258 25.8177 111.911 26.3806C111.585 26.9437 111.268 27.5169 110.962 28.1002C110.656 28.6634 110.41 29.2572 110.224 29.8817C109.961 30.0617 109.777 30.2926 109.675 30.5745C109.592 30.8565 109.55 31.1388 109.548 31.4214C109.729 31.5234 109.931 31.5853 110.153 31.6069C110.395 31.6084 110.627 31.6099 110.849 31.6113C111.071 31.6127 111.283 31.6342 111.484 31.6759C111.686 31.7175 111.867 31.8196 112.027 31.9821C112.29 31.903 112.573 31.8543 112.876 31.8361C113.199 31.7978 113.462 31.7086 113.665 31.5686C114.067 31.7125 114.501 31.7859 114.965 31.7888C115.207 31.7904 115.439 31.7717 115.662 31.7327C115.904 31.6939 116.137 31.6449 116.359 31.5858C116.54 31.6273 116.681 31.6988 116.781 31.8004C116.882 31.8818 117.033 31.913 117.235 31.8941C117.336 31.814 117.397 31.7337 117.418 31.6531C117.439 31.5523 117.49 31.4618 117.571 31.3816Z" fill="white"/>
<path d="M145.651 33.7096C145.568 34.0118 145.435 34.2633 145.252 34.4639C145.069 34.6646 144.856 34.8449 144.613 35.0048C144.39 35.1649 144.147 35.3147 143.884 35.4543C143.621 35.5737 143.367 35.7134 143.124 35.8733L142.731 35.8708C141.883 35.8654 141.228 35.6594 140.767 35.2528C140.325 34.8262 139.986 34.3093 139.747 33.7024C139.509 33.0752 139.332 32.408 139.215 31.7009C139.119 30.9939 138.992 30.3472 138.834 29.7609C138.59 29.9612 138.387 30.2021 138.224 30.4836C138.061 30.745 137.887 31.0062 137.704 31.2674C137.541 31.5288 137.348 31.7697 137.124 31.9903C136.921 32.211 136.648 32.3607 136.304 32.4392C136.243 32.5801 136.171 32.7209 136.089 32.8617C136.028 33.0026 135.987 33.1537 135.966 33.315C135.52 33.5544 135.115 33.8343 134.749 34.1549C134.384 34.4755 134.018 34.8062 133.653 35.147C133.288 35.4878 132.912 35.8184 132.527 36.1389C132.161 36.4393 131.746 36.689 131.281 36.8878C131.261 36.8675 131.22 36.8572 131.16 36.8568C130.918 36.8552 130.695 36.9144 130.493 37.0342C130.29 37.1338 130.068 37.1829 129.826 37.1813C129.664 37.1803 129.513 37.149 129.372 37.0876C129.251 37.0263 129.121 36.9548 128.98 36.8732C128.859 36.7917 128.728 36.7303 128.587 36.6891C128.446 36.6478 128.295 36.6367 128.134 36.6559C127.934 36.2913 127.664 35.9566 127.323 35.6517C127.002 35.3267 126.802 34.9622 126.724 34.558C126.685 34.3761 126.656 34.1943 126.637 34.0125C126.638 33.8107 126.619 33.6088 126.58 33.4067C126.521 33.1036 126.443 32.8003 126.344 32.497C126.245 32.1734 126.166 31.85 126.108 31.5267C126.212 30.9824 126.317 30.3877 126.422 29.7425C126.507 29.077 126.612 28.4218 126.737 27.7767C126.882 27.1116 127.068 26.4871 127.294 25.9033C127.54 25.2993 127.846 24.7866 128.212 24.3651L128.183 24.153C128.185 23.8301 128.247 23.5278 128.37 23.246C128.493 22.9642 128.626 22.6926 128.769 22.4311C128.912 22.1697 129.035 21.9081 129.137 21.6463C129.24 21.3846 129.262 21.0921 129.203 20.7688C129.446 20.6493 129.699 20.55 129.962 20.4709C130.225 20.3918 130.498 20.3532 130.78 20.355C131.043 20.3567 131.285 20.3986 131.506 20.4807C131.465 20.6419 131.535 20.7433 131.716 20.7848L131.715 20.8756C131.713 21.2994 131.66 21.7128 131.556 22.1158C131.453 22.5188 131.329 22.9217 131.185 23.3244C131.041 23.707 130.898 24.0996 130.754 24.5024C130.63 24.8851 130.537 25.278 130.474 25.6813C130.393 25.701 130.332 25.7409 130.292 25.8012C130.271 25.8616 130.25 25.9221 130.23 25.9825C130.209 26.0429 130.179 26.0932 130.138 26.1333C130.097 26.1734 130.037 26.1932 129.956 26.1927C129.83 26.8983 129.695 27.6038 129.549 28.3093C129.424 28.9947 129.359 29.6906 129.354 30.3969C129.351 30.8207 129.389 31.2549 129.467 31.6994C129.545 32.1439 129.693 32.5687 129.913 32.9738L130.034 32.9443C130.256 32.9457 130.427 32.9972 130.548 33.0989C130.688 33.2007 130.869 33.3028 131.091 33.4051C131.253 33.3658 131.404 33.3163 131.546 33.2566C131.688 33.1768 131.749 33.046 131.73 32.8642C131.993 32.8457 132.215 32.7866 132.397 32.6868C132.58 32.5669 132.742 32.4367 132.884 32.2964L133.341 31.8754C133.503 31.7352 133.696 31.6355 133.918 31.5764C133.919 31.4553 133.95 31.3646 134.01 31.3045L134.193 31.124C134.254 31.0638 134.295 31.0036 134.316 30.9431C134.356 30.8627 134.367 30.7517 134.348 30.6103C134.59 30.5917 134.772 30.5323 134.894 30.4322C135.036 30.3321 135.158 30.2219 135.259 30.1015C135.381 29.961 135.493 29.8204 135.595 29.6798C135.697 29.5391 135.829 29.4189 135.991 29.319C136.134 29.0172 136.328 28.6147 136.574 28.1117C136.839 27.6089 137.095 27.0857 137.341 26.5424C137.606 25.9991 137.832 25.4859 138.016 25.0027C138.221 24.4994 138.325 24.1166 138.327 23.8542C138.327 23.7533 138.297 23.6623 138.237 23.5812C138.198 23.5002 138.188 23.4093 138.209 23.3086L138.209 23.2177C138.372 23.017 138.515 22.7959 138.638 22.5544C138.78 22.3132 138.923 22.082 139.066 21.8609C139.229 21.6399 139.401 21.4392 139.584 21.2587C139.767 21.0782 140 20.9384 140.283 20.8393C140.605 20.9423 140.928 21.0149 141.251 21.0574C141.593 21.0999 141.916 21.1827 142.218 21.3057C142.235 21.8104 142.282 22.396 142.358 23.0625C142.434 23.729 142.572 24.295 142.771 24.7605C142.769 25.0228 142.758 25.275 142.736 25.5171C142.734 25.7593 142.733 26.0015 142.731 26.2436C142.729 26.6473 142.736 27.0611 142.754 27.485C142.791 27.9091 142.86 28.3031 142.958 28.667C142.815 28.9688 142.742 29.2913 142.74 29.6344C142.737 30.0986 142.805 30.543 142.943 30.9677C143.082 31.3723 143.18 31.8068 143.238 32.2714C143.498 32.6363 143.84 32.8202 144.264 32.8229C144.365 32.8235 144.445 32.8139 144.506 32.7941C144.587 32.7745 144.668 32.7447 144.749 32.7048C144.909 32.8875 145.049 33.07 145.169 33.2525C145.309 33.4148 145.47 33.5672 145.651 33.7096Z" fill="white"/>
<path d="M172.807 19.3205C172.725 19.5824 172.592 19.8237 172.409 20.0446L171.89 20.677C171.728 20.8778 171.585 21.0989 171.462 21.3403C171.36 21.5617 171.328 21.8239 171.366 22.1269C171.326 22.1266 171.276 22.1263 171.215 22.1259C171.155 22.1053 171.104 22.0949 171.064 22.0947C170.741 22.0926 170.488 22.1717 170.306 22.332C170.143 22.4723 169.92 22.592 169.637 22.6911C169.598 22.5697 169.548 22.4584 169.488 22.3571C169.428 22.2356 169.338 22.1543 169.217 22.1132C168.732 22.211 168.247 22.2887 167.762 22.3461C167.278 22.3834 166.793 22.4409 166.308 22.5185C166.086 22.5575 165.864 22.6166 165.641 22.6959C165.419 22.7551 165.186 22.8141 164.944 22.8731C164.822 22.9127 164.691 22.9321 164.55 22.9312C164.409 22.9101 164.267 22.9092 164.126 22.9285C163.641 22.9456 163.116 22.9826 162.551 23.0396C161.986 23.0763 161.48 23.2245 161.034 23.484C160.833 23.4424 160.621 23.4108 160.399 23.3892C160.177 23.3676 159.955 23.3561 159.733 23.3546C159.249 23.3516 158.714 23.3986 158.128 23.4958C157.562 23.5729 157.057 23.7413 156.611 24.0008C156.51 23.9598 156.4 23.9288 156.279 23.9079C156.178 23.8871 156.057 23.8762 155.916 23.8753C155.875 23.875 155.845 23.8849 155.825 23.905C155.804 23.9049 155.774 23.9047 155.734 23.9044C155.712 24.0859 155.731 24.2677 155.791 24.4497C155.871 24.6117 156.001 24.7437 156.182 24.8458C156.1 25.0673 156.058 25.3092 156.056 25.5715C156.054 25.9146 156.072 26.2579 156.11 26.6012C156.169 26.9447 156.197 27.288 156.194 27.6311C156.192 28.0145 156.14 28.3169 156.037 28.5383C156.235 29.145 156.332 29.7915 156.328 30.4777C156.326 30.7198 156.304 30.9619 156.263 31.2038C156.241 31.4257 156.229 31.6678 156.228 31.9302C156.226 32.1522 156.306 32.3343 156.466 32.4766C156.627 32.5988 156.707 32.7708 156.705 32.9928C156.705 33.0735 156.684 33.1541 156.643 33.2346C156.926 33.1759 157.199 33.0969 157.462 32.9976C157.725 32.8782 157.998 32.8194 158.281 32.8212C158.442 32.8222 158.593 32.8534 158.734 32.9149C158.895 32.9765 159.036 33.0581 159.156 33.1598C159.136 33.2606 159.115 33.3714 159.094 33.4924C159.093 33.6135 159.092 33.7346 159.091 33.8557C159.09 34.0777 159.089 34.2896 159.087 34.4914C159.106 34.6732 159.125 34.8751 159.144 35.0972C158.981 35.3788 158.788 35.6298 158.564 35.8504C158.361 36.0711 158.218 36.3528 158.135 36.6953C157.832 36.6934 157.559 36.7623 157.316 36.902C157.093 37.0217 156.881 37.1617 156.678 37.3218C156.475 37.4618 156.272 37.6018 156.07 37.7418C155.867 37.8616 155.645 37.9207 155.402 37.9192C155.1 37.9173 154.888 37.8756 154.767 37.7941C154.647 37.6924 154.557 37.5909 154.497 37.4896C154.437 37.3883 154.377 37.2971 154.317 37.216C154.277 37.135 154.176 37.1041 154.015 37.1232C153.976 36.8606 153.897 36.6179 153.777 36.3952C153.658 36.1522 153.528 35.9193 153.388 35.6964C153.269 35.4736 153.139 35.2508 152.999 35.0279C152.879 34.7849 152.79 34.5422 152.731 34.2996C152.613 33.7741 152.566 33.2289 152.59 32.6639C152.614 32.0989 152.527 31.5534 152.328 31.0274C152.37 30.7451 152.402 30.4628 152.424 30.1804C152.446 29.8778 152.458 29.5852 152.46 29.3027C152.464 28.7376 152.447 28.1824 152.41 27.6373C152.394 27.072 152.377 26.4967 152.361 25.9113C152.22 25.7288 152.131 25.5264 152.092 25.3041C152.073 25.0618 152.055 24.8296 152.036 24.6075C151.976 24.5465 151.905 24.4855 151.825 24.4245C151.765 24.3636 151.725 24.2826 151.706 24.1815C151.544 24.1401 151.423 24.1192 151.343 24.1187C151.06 24.1169 150.817 24.186 150.615 24.326C150.432 24.4459 150.26 24.5054 150.099 24.5043C149.938 24.5033 149.786 24.4822 149.645 24.4409C149.504 24.3996 149.363 24.3786 149.222 24.3777C149.101 24.3769 149.03 24.4067 149.009 24.4671C149.009 24.5075 148.968 24.5476 148.887 24.5874C148.827 24.6274 148.685 24.6669 148.463 24.7058C148.241 24.7448 147.988 24.7836 147.705 24.8221C147.443 24.8406 147.18 24.8591 146.918 24.8777C146.676 24.8963 146.514 24.9054 146.433 24.9049C146.11 24.9028 145.869 24.8407 145.708 24.7186C145.527 24.5762 145.316 24.4235 145.075 24.2605C145.116 24.1396 145.137 24.059 145.137 24.0187C145.138 23.8168 145.079 23.655 144.959 23.5331C144.838 23.3911 144.779 23.2696 144.779 23.1687C144.781 22.9467 144.873 22.7757 145.055 22.6558C145.217 22.5357 145.309 22.3446 145.331 22.0824C145.797 21.8835 146.272 21.7351 146.757 21.6373C147.242 21.5395 147.737 21.4619 148.242 21.4046C148.747 21.3472 149.242 21.2797 149.726 21.2021C150.231 21.1246 150.727 20.9965 151.212 20.818C151.353 20.8391 151.484 20.8601 151.605 20.881C151.747 20.8819 151.888 20.8828 152.029 20.8837C152.635 20.8876 153.23 20.8308 153.817 20.7134C154.423 20.576 155.039 20.5093 155.665 20.5133C155.826 20.5143 155.987 20.5254 156.149 20.5466C156.31 20.5678 156.471 20.5991 156.632 20.6405C157.441 20.5246 158.239 20.3985 159.027 20.2622C159.835 20.1261 160.663 20.0102 161.511 19.9147C161.915 19.8769 162.309 19.8491 162.692 19.8314C163.096 19.7936 163.5 19.7457 163.904 19.6877C164.046 19.6685 164.147 19.6388 164.208 19.5989C164.289 19.5388 164.33 19.4281 164.331 19.2666C164.512 19.3485 164.714 19.3902 164.936 19.3916C165.279 19.3937 165.612 19.3353 165.936 19.2163C166.259 19.0972 166.593 19.0388 166.936 19.041C167.017 19.0415 167.087 19.052 167.148 19.0726C167.208 19.073 167.269 19.0734 167.329 19.0738C167.47 19.0747 167.541 19.0146 167.542 18.8935C167.563 18.7523 167.665 18.6622 167.847 18.623C167.988 18.5835 168.19 18.5545 168.453 18.536C168.715 18.5175 168.988 18.499 169.27 18.4806C169.573 18.4422 169.846 18.4036 170.089 18.3647C170.351 18.3059 170.544 18.2264 170.665 18.1262L170.879 17.7946C171.243 17.8171 171.504 17.9802 171.663 18.2839C171.843 18.5676 171.942 18.8811 171.96 19.2243C172.04 19.3056 172.151 19.3466 172.292 19.3475C172.454 19.3284 172.595 19.3192 172.716 19.32L172.807 19.3205Z" fill="white"/>
<path d="M184.592 18.0332C184.591 18.2148 184.509 18.3656 184.347 18.4857C184.205 18.6059 184.134 18.6963 184.133 18.7568C184.133 18.8779 184.152 18.9689 184.192 19.0297C184.232 19.0703 184.252 19.1209 184.252 19.1814L184.251 19.3328C184.048 19.5333 183.895 19.7543 183.792 19.9959C183.69 20.2172 183.608 20.4589 183.546 20.7209C183.484 20.9627 183.421 21.2146 183.359 21.4766C183.317 21.7387 183.255 21.9906 183.173 22.2322C183.07 22.4738 182.938 22.6848 182.775 22.8654C182.613 23.0259 182.48 23.2168 182.378 23.4381C182.214 23.8004 182.091 24.173 182.008 24.5559C181.924 24.9389 181.751 25.2909 181.486 25.6122L181.485 25.7636C181.464 25.9047 181.504 26.026 181.604 26.1276C181.217 26.6297 180.911 27.2332 180.684 27.9382C180.458 28.623 180.272 29.3484 180.125 30.1144C179.979 30.8602 179.854 31.6162 179.748 32.3825C179.642 33.1286 179.517 33.8039 179.372 34.4085C179.47 34.8531 179.618 35.2779 179.818 35.6828C180.037 36.0677 180.246 36.4727 180.446 36.8978C180.849 37.0013 181.231 37.145 181.593 37.3289C181.976 37.513 182.246 37.8074 182.405 38.212C182.362 38.6154 182.229 38.9274 182.006 39.148C181.782 39.3686 181.508 39.5989 181.184 39.8391C180.962 39.7569 180.781 39.6851 180.64 39.6237C180.499 39.5824 180.287 39.5811 180.004 39.6196C179.623 39.3145 179.261 39.07 178.919 38.8862C178.597 38.7025 178.307 38.3878 178.047 37.9421C178.007 37.8813 177.947 37.8507 177.866 37.8502L177.594 37.8484C177.494 37.6056 177.375 37.3526 177.235 37.0893C177.096 36.8058 176.956 36.5224 176.817 36.239C176.678 35.9353 176.558 35.6419 176.459 35.3587C176.36 35.0554 176.311 34.7826 176.313 34.5404C176.32 33.5111 176.417 32.4925 176.605 31.4846C176.813 30.4566 176.921 29.4179 176.927 28.3684L176.929 28.0657C176.525 28.164 176.121 28.3027 175.716 28.4818C175.331 28.661 174.937 28.7998 174.532 28.8981C174.391 28.9376 174.31 29.0077 174.289 29.1085C174.268 29.2093 174.207 29.2896 174.106 29.3495C173.904 29.3684 173.712 29.3874 173.53 29.4064C173.349 29.4052 173.177 29.4041 173.016 29.4031C172.672 29.4009 172.309 29.3885 171.926 29.3659C171.563 29.3232 171.2 29.2503 170.837 29.1471C170.475 29.0439 170.133 28.9004 169.811 28.7167C169.509 28.5331 169.238 28.2993 168.998 28.0152C168.957 28.0352 168.907 28.055 168.846 28.0748C168.786 28.0946 168.725 28.1043 168.664 28.1039C168.604 28.1035 168.543 28.0931 168.483 28.0725C168.422 28.0519 168.372 28.0314 168.332 28.011C168.172 27.788 168.042 27.545 167.943 27.2819L167.645 26.4929C167.546 26.2299 167.437 25.9769 167.317 25.734C167.198 25.491 167.038 25.268 166.837 25.0649C166.779 24.7012 166.751 24.3479 166.753 24.0048C166.755 23.6415 166.788 23.2885 166.85 22.9458C166.893 22.603 166.966 22.2603 167.069 21.9179C166.99 21.6752 166.941 21.4226 166.922 21.1601C166.884 20.8975 166.865 20.635 166.867 20.3726C166.869 20.0699 166.901 19.7573 166.964 19.4347C167.026 19.1122 167.129 18.8202 167.272 18.5587C167.415 18.2771 167.618 18.0463 167.882 17.8663C168.125 17.6862 168.428 17.5973 168.792 17.5996C169.195 17.6022 169.568 17.7156 169.91 17.9398C170.251 18.1438 170.583 18.3578 170.905 18.5819C170.943 18.8243 170.972 19.0667 170.991 19.309C171.01 19.5311 171.018 19.7734 171.016 20.0357C171.013 20.5201 170.98 21.0143 170.916 21.5185C170.873 22.0026 170.849 22.4969 170.846 23.0015C170.843 23.5262 170.9 24.0211 171.018 24.486C171.157 24.9309 171.396 25.3563 171.737 25.7621L171.858 25.7629C172.02 25.7437 172.161 25.7749 172.281 25.8564C172.402 25.9379 172.543 25.9791 172.704 25.9802C172.846 25.9811 172.957 25.9313 173.038 25.8309C173.12 25.7103 173.221 25.6504 173.342 25.6512C173.463 25.652 173.554 25.6727 173.614 25.7135C173.675 25.7542 173.725 25.7747 173.765 25.775C173.987 25.7764 174.24 25.6973 174.524 25.5376C174.807 25.378 174.99 25.1975 175.072 24.9962C175.152 25.0572 175.253 25.0882 175.374 25.0889C175.536 25.09 175.687 25.0405 175.829 24.9405C175.971 24.8404 176.153 24.7911 176.375 24.7926C176.496 24.7933 176.537 24.7229 176.497 24.5814C176.478 24.4198 176.519 24.3192 176.62 24.2795C176.863 24.1801 177.127 24.0405 177.41 23.8606C177.714 23.6607 177.957 23.5412 178.139 23.502C178.242 23.2403 178.364 22.9989 178.507 22.7778C178.67 22.5366 178.833 22.3156 178.996 22.1148C179.059 21.651 179.183 21.2078 179.367 20.7851C179.552 20.3625 179.746 19.9399 179.951 19.5173C180.155 19.0948 180.35 18.6722 180.534 18.2495C180.718 17.8269 180.842 17.3836 180.906 16.9198C181.129 16.6993 181.302 16.4582 181.425 16.1966C181.568 15.9351 181.691 15.6735 181.793 15.4118C181.995 15.3525 182.248 15.3239 182.551 15.3258C182.853 15.3075 183.116 15.2991 183.338 15.3005L183.853 15.3038C183.912 15.4253 183.992 15.5368 184.093 15.6383L184.393 15.943C184.21 16.2244 184.117 16.5063 184.116 16.7889C184.114 17.0109 184.163 17.2332 184.263 17.4559C184.362 17.6583 184.472 17.8507 184.592 18.0332Z" fill="white"/>
<path d="M207.845 17.6664C207.844 17.848 207.802 18.0193 207.72 18.1803L207.506 18.633C207.444 18.7739 207.383 18.9249 207.321 19.0859C207.26 19.247 207.238 19.4386 207.257 19.6607C206.972 19.9819 206.688 20.2929 206.403 20.5938C206.119 20.8947 205.864 21.2362 205.64 21.6183C205.418 21.5967 205.246 21.646 205.124 21.7664C205.023 21.8868 204.941 22.0478 204.879 22.2492C204.454 22.3878 204.08 22.6074 203.755 22.9081C203.43 23.1886 203.146 23.4996 202.901 23.8411C201.829 24.2783 200.826 24.8169 199.894 25.4568C198.961 26.0967 198.109 26.8481 197.336 27.7111C197.7 27.7134 198.053 27.756 198.395 27.8389C198.758 27.922 199.111 28.015 199.453 28.1181C199.816 28.2012 200.168 28.2841 200.511 28.367C200.854 28.4298 201.207 28.4421 201.57 28.404C201.831 28.6479 202.123 28.8516 202.444 29.0151C202.786 29.1787 203.119 29.3322 203.441 29.4755C203.783 29.619 204.105 29.7825 204.406 29.9661C204.728 30.1498 205.009 30.3735 205.25 30.6375C205.249 30.6778 205.239 30.7181 205.219 30.7584C205.218 30.7785 205.218 30.8088 205.218 30.8492C205.217 31.0106 205.256 31.1723 205.336 31.3343C205.416 31.4761 205.455 31.6277 205.454 31.7892C205.352 31.95 205.26 32.121 205.178 32.3021C205.097 32.4832 204.995 32.644 204.873 32.7845C204.771 32.9251 204.649 33.0455 204.507 33.1455C204.365 33.2455 204.173 33.3048 203.931 33.3235C203.828 33.6659 203.664 33.9373 203.441 34.1377C203.218 34.318 202.965 34.4879 202.681 34.6476C202.418 34.7872 202.154 34.9369 201.891 35.0967C201.628 35.2363 201.405 35.4266 201.221 35.6676C200.615 35.805 200.018 36.0031 199.431 36.2617C198.865 36.5003 198.358 36.8503 197.911 37.3116C197.608 37.3501 197.295 37.3985 196.972 37.457C196.669 37.4955 196.366 37.5137 196.063 37.5118C195.639 37.5091 195.297 37.4262 195.035 37.2631C194.774 37.0797 194.625 36.7559 194.587 36.2914C194.649 36.1505 194.74 36.03 194.862 35.9299L195.258 35.6297C195.4 35.5297 195.521 35.4295 195.623 35.3293C195.745 35.2089 195.836 35.0682 195.898 34.9072C195.938 34.9074 195.989 34.9178 196.049 34.9384C196.11 34.9388 196.17 34.9392 196.231 34.9396C196.473 34.9411 196.665 34.8919 196.807 34.7918C196.949 34.6918 197.081 34.5918 197.202 34.4916C197.344 34.3916 197.496 34.3018 197.658 34.2221C197.82 34.1424 198.032 34.1134 198.295 34.1353C198.438 33.8738 198.651 33.6834 198.934 33.5641C199.217 33.4247 199.511 33.3054 199.814 33.2065C200.118 33.0873 200.401 32.9579 200.664 32.8183C200.948 32.6586 201.141 32.4278 201.244 32.1257C201.144 31.9636 201.014 31.8417 200.853 31.7599C200.692 31.658 200.511 31.5761 200.309 31.5143L199.735 31.329C199.554 31.2673 199.393 31.1956 199.252 31.114C199.03 31.1731 198.818 31.202 198.616 31.2007C198.192 31.198 197.779 31.1551 197.376 31.0718C196.972 30.9885 196.559 30.9455 196.135 30.9428C195.752 30.9403 195.418 30.9887 195.135 31.0878C195.034 31.067 194.924 31.036 194.803 30.9948C194.702 30.9538 194.601 30.9128 194.501 30.8718C194.035 31.0505 193.551 31.1383 193.046 31.135L191.078 31.1225C190.917 31.1215 190.755 31.1407 190.593 31.18C190.369 31.5822 190.255 32.0154 190.252 32.4796C190.25 32.8227 190.298 33.156 190.397 33.4796C190.496 33.7829 190.595 34.1065 190.694 34.4502C191.095 34.8161 191.466 35.2524 191.806 35.7591C192.146 36.2456 192.314 36.7815 192.31 37.3668C192.309 37.5081 192.298 37.619 192.278 37.6996C192.077 37.5571 191.815 37.4848 191.492 37.4827C191.209 37.4809 190.937 37.5195 190.674 37.5986C190.431 37.6778 190.168 37.7367 189.885 37.7752C189.664 37.6729 189.433 37.5705 189.191 37.4681C188.95 37.3454 188.719 37.2027 188.498 37.0398C188.338 36.6957 188.179 36.3718 188.019 36.068C187.86 35.7441 187.66 35.4401 187.42 35.156L187.42 35.0349C187.425 34.3285 187.369 33.6319 187.252 32.9449C187.156 32.2581 187.11 31.5615 187.114 30.8551C187.116 30.5322 187.128 30.2094 187.15 29.8866C187.193 29.5437 187.296 29.2316 187.459 28.9501C187.402 28.4653 187.375 27.9606 187.378 27.4358C187.385 26.3864 187.452 25.3373 187.58 24.2886C187.707 23.2399 187.775 22.1707 187.782 21.0808C187.783 20.8588 187.774 20.6368 187.756 20.4147C187.757 20.1927 187.748 19.9706 187.73 19.7485L187.609 19.7477C187.346 19.746 187.094 19.7848 186.851 19.864C186.608 19.923 186.366 19.9921 186.123 20.0713C185.88 20.1504 185.628 20.2296 185.365 20.3086C185.102 20.3675 184.839 20.3961 184.577 20.3944C184.415 20.4741 184.283 20.554 184.182 20.6341C184.08 20.7142 183.979 20.7842 183.878 20.8441C183.777 20.904 183.665 20.9538 183.544 20.9933C183.402 21.0328 183.241 21.0419 183.059 21.0205C182.836 21.1604 182.664 21.2703 182.543 21.3503C182.401 21.4099 182.209 21.4793 181.966 21.5585C181.845 21.5981 181.743 21.658 181.662 21.7382L181.419 21.9486C181.337 22.0086 181.246 22.0686 181.145 22.1285C181.044 22.1884 180.912 22.2178 180.751 22.2168C180.61 22.2159 180.509 22.2052 180.448 22.1846C180.328 22.0829 180.228 21.9612 180.148 21.8194C180.048 21.6775 179.958 21.5457 179.878 21.4241C179.778 21.2822 179.678 21.1605 179.578 21.0589C179.457 20.9371 179.317 20.8454 179.155 20.7838C179.237 20.6834 179.278 20.6029 179.278 20.5424C179.258 20.4615 179.249 20.3706 179.25 20.2697C179.25 20.2092 179.26 20.1689 179.281 20.1488C179.384 19.7862 179.567 19.5048 179.831 19.3047C180.095 19.0843 180.388 18.9146 180.712 18.7956C181.036 18.6564 181.37 18.5374 181.713 18.4387C182.037 18.3398 182.34 18.2207 182.624 18.0812C183.411 18.1064 184.128 18.0403 184.775 17.8829C185.422 17.7054 186.089 17.4574 186.777 17.1388C186.898 17.2002 187.019 17.2312 187.14 17.232C187.241 17.2326 187.342 17.2232 187.443 17.2036L187.746 17.145C187.99 16.9447 188.253 16.8152 188.536 16.7565C188.819 16.6977 189.102 16.649 189.384 16.6105C189.667 16.5719 189.94 16.5333 190.202 16.4946C190.465 16.4357 190.698 16.3262 190.901 16.166L191.022 16.1668C191.506 16.1699 191.991 16.0922 192.477 15.9338C192.982 15.7756 193.467 15.7181 193.931 15.7615C194.336 15.542 194.71 15.4031 195.054 15.3448C195.397 15.2864 195.791 15.2586 196.235 15.2614C196.336 15.2621 196.457 15.2225 196.599 15.1427C196.741 15.0427 196.913 14.9933 197.115 14.9946C197.155 14.9948 197.185 15.0051 197.205 15.0254C197.246 15.0257 197.286 15.0259 197.326 15.0262C197.508 15.0274 197.629 14.9676 197.691 14.8469C197.772 14.7263 197.964 14.667 198.267 14.6689C198.408 14.6698 198.539 14.6807 198.66 14.7017C198.781 14.7024 198.903 14.7032 199.024 14.704C199.165 14.7049 199.256 14.655 199.297 14.5543C199.338 14.4335 199.429 14.3836 199.57 14.4047C199.631 14.4858 199.731 14.5268 199.872 14.5277C200.014 14.5084 200.125 14.4991 200.206 14.4996C200.347 14.5005 200.427 14.5414 200.447 14.6222C200.771 14.4224 201.125 14.2935 201.509 14.2354C201.913 14.1774 202.297 14.1496 202.66 14.1519C202.801 14.1528 202.943 14.1638 203.084 14.1849C203.225 14.1858 203.376 14.1968 203.538 14.218C203.72 14.0981 203.932 14.0389 204.174 14.0404C204.316 14.0413 204.537 14.1033 204.839 14.2263C205.161 14.3495 205.494 14.4928 205.836 14.6565C206.178 14.8201 206.489 14.9937 206.771 15.1771C207.052 15.3605 207.223 15.513 207.283 15.6345C207.323 15.6751 207.342 15.766 207.341 15.9073C207.361 16.0487 207.39 16.17 207.43 16.2711C207.529 16.514 207.619 16.7466 207.698 16.9692C207.798 17.1716 207.846 17.404 207.845 17.6664ZM204.482 17.978C204.483 17.9377 204.473 17.8972 204.453 17.8567C204.453 17.7962 204.454 17.7457 204.454 17.7054C204.354 17.5836 204.213 17.4919 204.032 17.4302C203.871 17.3687 203.689 17.317 203.488 17.2754C203.306 17.2339 203.115 17.2024 202.913 17.1809C202.732 17.1394 202.571 17.0879 202.43 17.0265C202.005 17.165 201.54 17.2327 201.036 17.2295C200.572 17.2266 200.158 17.1533 199.796 17.0097C199.613 17.1902 199.38 17.33 199.097 17.4291C198.814 17.5282 198.511 17.607 198.187 17.6655C197.884 17.704 197.571 17.7322 197.248 17.7504C196.946 17.7484 196.673 17.7467 196.431 17.7452C196.35 17.7447 196.209 17.8043 196.006 17.9241C195.803 18.0439 195.621 18.1033 195.46 18.1023C195.339 18.1015 195.228 18.0503 195.128 17.9488C194.945 18.0889 194.692 18.2084 194.369 18.3073C194.045 18.4061 193.712 18.4948 193.368 18.5734C193.025 18.6317 192.671 18.7001 192.307 18.7785C191.964 18.8571 191.67 18.9359 191.428 19.0151C191.182 19.5383 191.047 20.1127 191.023 20.7382C190.999 21.3435 190.985 21.9388 190.982 22.5241C190.979 22.8672 190.957 23.2 190.915 23.5227C190.872 23.8454 190.85 24.1782 190.848 24.5213C190.847 24.6828 190.856 24.8544 190.875 25.0361C190.894 25.1977 190.953 25.3596 191.053 25.5217C190.891 25.6417 190.779 25.8025 190.717 26.0039C190.676 26.1853 190.654 26.3668 190.653 26.5484C190.652 26.7704 190.671 26.9724 190.71 27.1543C190.749 27.3362 190.788 27.508 190.828 27.6697C191.474 27.6133 192.06 27.4959 192.586 27.3176C193.132 27.1394 193.638 26.9206 194.104 26.6612C194.59 26.4019 195.056 26.1022 195.502 25.7619C195.948 25.4216 196.415 25.0613 196.902 24.6809C197.104 24.6418 197.265 24.5823 197.387 24.5024C197.529 24.4225 197.701 24.3833 197.902 24.3845C197.985 24.1025 198.138 23.9117 198.36 23.8122C198.583 23.6926 198.756 23.5221 198.878 23.3009C199.121 23.2419 199.323 23.1624 199.485 23.0626C199.668 22.9426 199.84 22.8327 200.002 22.7328C200.164 22.6128 200.336 22.5029 200.519 22.4031C200.721 22.3035 200.943 22.2443 201.186 22.2257C201.531 21.8242 201.887 21.4228 202.253 21.0215C202.639 20.6203 203.085 20.3002 203.591 20.0613C203.673 19.86 203.765 19.689 203.867 19.5484C203.969 19.3875 204.061 19.2368 204.142 19.096C204.244 18.9352 204.326 18.7742 204.388 18.6132C204.449 18.4319 204.481 18.2202 204.482 17.978Z" fill="white"/>
<path d="M230.64 36.9446C230.577 37.2267 230.445 37.458 230.242 37.6383C230.059 37.7986 229.836 37.9284 229.573 38.0277C229.31 38.1269 229.037 38.1958 228.754 38.2344C228.492 38.2529 228.25 38.2614 228.028 38.26C227.927 38.2594 227.826 38.2587 227.725 38.2581C227.644 38.2374 227.554 38.2267 227.453 38.2261C227.352 38.2254 227.301 38.2756 227.3 38.3765C227.3 38.4774 227.249 38.5477 227.148 38.5874C227.047 38.5464 226.946 38.5155 226.846 38.4947C226.745 38.4739 226.644 38.4631 226.543 38.4625C226.402 38.4616 226.26 38.4708 226.119 38.4901C225.998 38.5095 225.877 38.5188 225.756 38.518C225.594 38.517 225.473 38.4961 225.393 38.4552C225.332 38.4144 225.272 38.3737 225.212 38.3329C225.172 38.2721 225.122 38.2113 225.062 38.1503C225.022 38.0895 224.951 38.0386 224.851 37.9976C224.71 37.9362 224.589 37.9253 224.488 37.965C224.407 38.0049 224.276 37.9435 224.095 37.7809C223.854 37.5775 223.644 37.334 223.464 37.0503C223.305 36.7466 223.145 36.4327 222.986 36.1088C222.826 35.7848 222.657 35.4608 222.477 35.1368C222.298 34.8127 222.087 34.5288 221.847 34.2851L221.605 34.2835C221.241 34.2812 220.988 34.431 220.845 34.7328C220.744 34.6716 220.644 34.6004 220.544 34.519C220.443 34.4174 220.333 34.336 220.212 34.2747C219.747 34.413 219.262 34.531 218.757 34.6287C218.251 34.7264 217.747 34.7737 217.242 34.7705L216.818 34.7678C216.697 34.767 216.566 34.746 216.425 34.7047C216.223 34.7842 216.04 34.8839 215.878 35.004C215.716 35.1039 215.534 35.1532 215.332 35.1519C215.211 35.1511 215.07 35.1098 214.909 35.0281C214.788 35.0273 214.727 35.0774 214.727 35.1783C214.746 35.2793 214.685 35.3294 214.544 35.3285L214.272 35.3268C213.989 35.325 213.707 35.3333 213.424 35.3516C213.161 35.3702 212.889 35.3785 212.606 35.3767C212.223 35.3743 211.83 35.3213 211.427 35.2178C211.325 35.2778 211.214 35.3073 211.093 35.3066C211.012 35.3464 210.951 35.4167 210.91 35.5173C210.869 35.5978 210.828 35.6782 210.787 35.7587C210.747 35.819 210.686 35.8792 210.605 35.9392C210.544 35.9792 210.453 35.9887 210.332 35.9677C210.29 36.2097 210.188 36.4008 210.026 36.541C209.863 36.6812 209.781 36.8926 209.779 37.1752C209.557 37.2949 209.374 37.4451 209.232 37.6258C209.089 37.8066 208.947 37.9974 208.804 38.1983C208.662 38.3992 208.509 38.59 208.346 38.7706C208.204 38.9513 208.021 39.0915 207.799 39.1909C207.697 39.3114 207.666 39.5029 207.704 39.7656C207.481 39.9458 207.208 40.1055 206.884 40.2447C206.56 40.3839 206.257 40.4527 205.974 40.4509C205.389 40.4471 204.987 40.1317 204.769 39.5047C204.771 39.3029 204.792 39.0911 204.834 38.8694C204.856 38.6273 204.897 38.4056 204.959 38.2041C205.021 37.9825 205.113 37.7914 205.235 37.6307C205.358 37.4498 205.53 37.3197 205.753 37.2404C205.754 37.0588 205.694 36.9373 205.573 36.876C205.453 36.7945 205.403 36.663 205.424 36.4815C205.971 36.2226 206.447 35.8825 206.854 35.4612C207.26 35.04 207.626 34.5983 207.952 34.1362C208.298 33.654 208.644 33.1718 208.99 32.6896C209.337 32.2074 209.723 31.776 210.149 31.3952L210.153 30.7595C210.763 30.1175 211.161 29.3935 211.348 28.5873C211.57 28.5484 211.712 28.4484 211.773 28.2873C211.855 28.1264 211.897 27.9349 211.898 27.7129C211.999 27.7135 212.06 27.6735 212.081 27.5929C212.122 27.4923 212.213 27.4626 212.354 27.5039C212.538 27.0207 212.743 26.5779 212.968 26.1757C213.192 25.7735 213.417 25.3713 213.641 24.969C213.866 24.5466 214.06 24.1139 214.225 23.671C214.409 23.2281 214.544 22.7345 214.628 22.1901C214.91 22.1717 215.063 22.0415 215.084 21.7994C215.126 21.5373 215.168 21.3055 215.21 21.1039C215.514 20.8233 215.738 20.4917 215.882 20.1092C216.046 19.7267 216.19 19.3341 216.314 18.9312C216.437 18.5082 216.571 18.0953 216.715 17.6925C216.879 17.2697 217.103 16.8978 217.388 16.5767L217.389 16.4859C217.389 16.3849 217.349 16.3241 217.269 16.3035C217.188 16.2626 217.148 16.1917 217.149 16.0908C217.169 16.0707 217.179 16.0506 217.18 16.0304C217.422 15.9311 217.605 15.7708 217.728 15.5495C217.85 15.3081 218.033 15.1377 218.276 15.0383C218.697 15.3841 219.069 15.5984 219.392 15.6812C219.714 15.7438 220.138 15.797 220.662 15.8407C220.923 16.1249 221.062 16.4689 221.08 16.8726C221.118 17.2563 221.186 17.6402 221.284 18.0243C221.442 18.6712 221.609 19.308 221.787 19.9348C221.985 20.5415 222.132 21.1681 222.229 21.8146C222.287 22.1984 222.396 22.5624 222.555 22.9065C222.714 23.2507 222.823 23.6046 222.881 23.9682C222.92 24.251 222.918 24.5739 222.875 24.9369C222.833 25.2798 222.871 25.5828 222.99 25.8459L223.199 26.3316C223.299 26.5543 223.378 26.7869 223.437 27.0294C223.516 27.2721 223.585 27.5148 223.644 27.7573C223.802 28.3638 223.939 29.0206 224.056 29.7277C224.192 30.4148 224.4 31.0418 224.679 31.6087C224.779 31.8112 224.929 31.9534 225.131 32.0354C225.352 32.1176 225.594 32.1796 225.856 32.2217C226.118 32.2435 226.371 32.2552 226.613 32.2568C226.875 32.2382 227.097 32.2296 227.279 32.2307L227.582 32.2326C227.703 32.2334 227.824 32.2544 227.945 32.2955C228.024 32.4575 228.064 32.599 228.063 32.7201C228.061 32.9623 227.979 33.1535 227.817 33.2937C227.655 33.434 227.573 33.5949 227.572 33.7766C227.571 33.8775 227.611 33.9887 227.691 34.1103C227.61 34.0896 227.489 34.0788 227.328 34.0778C226.864 34.0748 226.409 34.1526 225.964 34.3113C226.123 34.6554 226.333 34.9494 226.594 35.1932C226.875 35.417 227.166 35.6308 227.468 35.8345C227.671 35.6744 227.883 35.595 228.105 35.5964C228.347 35.5979 228.569 35.6599 228.77 35.7823C228.991 35.8846 229.223 35.9365 229.465 35.9381C229.647 35.9392 229.778 35.9098 229.859 35.8497C230.02 36.0324 230.15 36.225 230.249 36.4274C230.349 36.6097 230.479 36.7821 230.64 36.9446ZM221.195 32.0407C221.157 31.6973 221.088 31.4547 220.988 31.3128C220.908 31.1508 220.839 30.9586 220.78 30.7362C220.701 30.4532 220.642 30.1501 220.604 29.8269C220.586 29.5039 220.547 29.1908 220.489 28.8877C220.352 28.2006 220.195 27.5134 220.017 26.826C219.86 26.1388 219.653 25.4715 219.394 24.824C219.476 24.7034 219.517 24.5927 219.517 24.4917L219.518 24.4009C219.338 24.198 219.208 23.9549 219.129 23.6719C219.05 23.3686 218.971 23.0755 218.893 22.7924C218.834 22.4893 218.745 22.2163 218.625 21.9733C218.526 21.7103 218.356 21.4973 218.115 21.3343C218.053 21.455 218.022 21.5961 218.021 21.7576C218.02 21.8988 218.03 22.0301 218.049 22.1513C218.089 22.2727 218.108 22.404 218.107 22.5452C217.905 22.6449 217.752 22.8054 217.65 23.0267C217.568 23.228 217.425 23.3886 217.223 23.5084C217.057 24.1532 216.821 24.7672 216.515 25.3506C216.209 25.9138 215.882 26.4768 215.535 27.0397C215.209 27.6028 214.892 28.1759 214.586 28.7593C214.28 29.3225 214.034 29.9163 213.848 30.5408C213.584 30.7207 213.401 30.9517 213.299 31.2336C213.216 31.5156 213.174 31.7979 213.172 32.0805C213.353 32.1825 213.555 32.2443 213.776 32.2659C214.019 32.2675 214.251 32.269 214.473 32.2704C214.695 32.2718 214.907 32.2933 215.108 32.335C215.31 32.3766 215.491 32.4787 215.651 32.6412C215.914 32.5621 216.197 32.5134 216.5 32.4952C216.823 32.4569 217.086 32.3677 217.289 32.2277C217.691 32.3716 218.125 32.445 218.589 32.4479C218.831 32.4495 219.063 32.4308 219.286 32.3918C219.528 32.353 219.76 32.304 219.983 32.2449C220.164 32.2864 220.305 32.3579 220.405 32.4595C220.506 32.5408 220.657 32.5721 220.859 32.5532C220.96 32.4731 221.021 32.3927 221.042 32.3122C221.063 32.2114 221.114 32.1209 221.195 32.0407Z" fill="white"/>
<path d="M246.932 31.4778C246.93 31.6998 246.848 31.8708 246.686 31.9909C246.524 32.0908 246.442 32.2315 246.441 32.4132C246.441 32.4939 246.48 32.595 246.56 32.7166C246.278 32.7149 246.086 32.8045 245.984 32.9854C245.881 33.1664 245.779 33.3676 245.677 33.589L245.283 33.5865C245.182 33.5858 245.102 33.6055 245.041 33.6455C244.98 33.6855 244.919 33.7456 244.858 33.826C244.817 33.8862 244.756 33.9868 244.674 34.1275C244.29 34.2058 243.916 34.3346 243.552 34.514C243.208 34.6732 242.863 34.8527 242.519 35.0523C242.195 35.2319 241.861 35.4215 241.516 35.6212C241.172 35.8006 240.818 35.9497 240.454 36.0685C240.27 36.3701 240.007 36.6106 239.662 36.79L239.571 36.7895C239.47 36.809 239.38 36.7983 239.299 36.7575C239.239 36.6965 239.159 36.6657 239.058 36.6651C238.997 36.6647 238.957 36.6746 238.936 36.6946C238.328 37.0944 237.651 37.2919 236.904 37.2872C236.702 37.2859 236.511 37.2746 236.329 37.2532C236.148 37.2117 235.956 37.1903 235.754 37.189C235.694 37.1886 235.653 37.2086 235.633 37.2488L235.572 37.3695C235.551 37.4097 235.521 37.4499 235.48 37.49C235.46 37.5303 235.389 37.55 235.268 37.5492C235.046 37.5478 234.824 37.5161 234.602 37.4542C234.381 37.3922 234.149 37.3806 233.906 37.4195C233.444 37.1541 233.082 36.8996 232.821 36.6557C232.56 36.4119 232.321 36.047 232.102 35.5613C232.002 35.3386 231.862 35.1258 231.682 34.9228C231.522 34.72 231.402 34.4972 231.323 34.2545C231.303 34.1737 231.274 34.0322 231.235 33.8301C231.196 33.6079 231.157 33.3755 231.118 33.1331C231.079 32.8906 231.04 32.6583 231.001 32.436C230.983 32.2139 230.973 32.0625 230.974 31.9818C230.976 31.7396 230.987 31.5075 231.009 31.2857C231.051 31.0438 231.092 30.8018 231.134 30.5599C231.26 29.7938 231.346 29.0274 231.391 28.2607C231.457 27.474 231.633 26.7183 231.92 25.9935C231.881 25.7713 231.862 25.5592 231.864 25.3574L231.868 24.6914C231.87 24.3079 231.822 23.9847 231.723 23.7217C231.886 23.4604 231.969 23.1682 231.971 22.8453C231.973 22.4821 231.823 22.2692 231.521 22.2067L231.521 22.1159C231.524 21.6921 231.385 21.3582 231.104 21.1142C231.108 20.4078 231.283 19.8842 231.628 19.5433C231.994 19.1823 232.47 18.8725 233.057 18.6139C233.139 18.4933 233.169 18.3926 233.15 18.3117C233.291 18.353 233.422 18.3942 233.543 18.4353C233.663 18.4765 233.784 18.4974 233.905 18.4982C234.107 18.4995 234.289 18.4703 234.451 18.4108C234.51 18.6534 234.66 18.8057 234.902 18.8678C235.164 18.9098 235.376 18.9717 235.537 19.0535L235.534 19.447C235.53 20.0727 235.678 20.669 235.977 21.236C235.895 21.397 235.844 21.5682 235.822 21.7497C235.801 21.9312 235.79 22.1027 235.789 22.2641C235.787 22.5063 235.796 22.7486 235.814 22.9909C235.833 23.2332 235.842 23.4653 235.84 23.6873C235.839 23.9295 235.807 24.1715 235.745 24.4133C235.703 24.6552 235.591 24.8664 235.408 25.0469C235.386 25.3092 235.364 25.6118 235.341 25.9547C235.339 26.2776 235.317 26.6105 235.275 26.9533C235.252 27.2963 235.2 27.629 235.117 27.9514C235.034 28.2738 234.911 28.5354 234.749 28.7362C234.726 29.0388 234.704 29.3515 234.682 29.6742C234.68 29.977 234.678 30.2696 234.676 30.5522C234.674 30.9962 234.691 31.521 234.727 32.1267C234.784 32.7326 234.922 33.238 235.141 33.6431C235.241 33.8052 235.432 33.9275 235.714 34.01C236.016 34.0926 236.258 34.1346 236.44 34.1357C236.662 34.1371 236.884 34.1083 237.106 34.0491C237.349 33.9699 237.522 33.8398 237.624 33.6589C237.745 33.6798 237.825 33.7409 237.865 33.842C237.904 33.9432 237.974 34.0244 238.075 34.0856C239.228 33.6085 240.382 33.1516 241.535 32.715C242.688 32.2783 243.822 31.7708 244.935 31.1926C245.096 31.2744 245.268 31.3158 245.449 31.317C245.651 31.3183 245.853 31.2994 246.055 31.2603C246.257 31.2212 246.459 31.2023 246.661 31.2036L246.873 31.2049C246.912 31.3263 246.932 31.4172 246.932 31.4778Z" fill="white"/>
<path d="M263.218 31.5814C263.217 31.8034 263.135 31.9744 262.973 32.0945C262.811 32.1943 262.729 32.3351 262.728 32.5167C262.728 32.5975 262.767 32.6986 262.847 32.8202C262.565 32.8184 262.372 32.908 262.27 33.089C262.168 33.27 262.066 33.4712 261.964 33.6926L261.57 33.6901C261.469 33.6894 261.388 33.7091 261.328 33.7491C261.267 33.789 261.206 33.8492 261.145 33.9296C261.104 33.9898 261.043 34.0904 260.961 34.2311C260.577 34.3094 260.203 34.4382 259.839 34.6175C259.495 34.7768 259.15 34.9563 258.806 35.1559C258.482 35.3355 258.148 35.5251 257.803 35.7247C257.459 35.9042 257.105 36.0533 256.741 36.1721C256.557 36.4737 256.293 36.7142 255.949 36.8936L255.858 36.8931C255.757 36.9126 255.666 36.9019 255.586 36.8611C255.526 36.8001 255.445 36.7693 255.344 36.7687C255.284 36.7683 255.243 36.7781 255.223 36.7982C254.615 37.198 253.938 37.3955 253.191 37.3908C252.989 37.3895 252.798 37.3782 252.616 37.3568C252.435 37.3153 252.243 37.2939 252.041 37.2926C251.981 37.2922 251.94 37.3122 251.92 37.3524L251.858 37.4731C251.838 37.5133 251.807 37.5535 251.767 37.5936C251.746 37.6338 251.676 37.6536 251.555 37.6528C251.333 37.6514 251.111 37.6197 250.889 37.5578C250.667 37.4958 250.435 37.4842 250.193 37.5231C249.73 37.2577 249.369 37.0032 249.108 36.7593C248.847 36.5154 248.607 36.1506 248.388 35.6649C248.289 35.4422 248.149 35.2294 247.969 35.0264C247.808 34.8236 247.689 34.6008 247.61 34.3581C247.59 34.2773 247.561 34.1358 247.521 33.9337C247.482 33.7115 247.444 33.4791 247.405 33.2367C247.366 32.9942 247.327 32.7619 247.288 32.5396C247.269 32.3175 247.26 32.1661 247.261 32.0853C247.262 31.8432 247.274 31.6111 247.295 31.3893C247.337 31.1473 247.379 30.9054 247.421 30.6635C247.547 29.8973 247.633 29.1309 247.678 28.3643C247.744 27.5776 247.92 26.8219 248.207 26.0971C248.168 25.8748 248.149 25.6628 248.151 25.461L248.155 24.795C248.157 24.4115 248.109 24.0883 248.01 23.8253C248.173 23.564 248.255 23.2718 248.257 22.9489C248.26 22.5856 248.11 22.3728 247.807 22.3103L247.808 22.2195C247.811 21.7957 247.671 21.4618 247.39 21.2178C247.395 20.5114 247.57 19.9878 247.915 19.6469C248.281 19.2859 248.757 18.9761 249.344 18.7175C249.425 18.5969 249.456 18.4962 249.437 18.4153C249.578 18.4566 249.709 18.4978 249.829 18.5389C249.95 18.58 250.071 18.601 250.192 18.6018C250.394 18.6031 250.576 18.5739 250.738 18.5144C250.797 18.757 250.947 18.9093 251.189 18.9714C251.451 19.0134 251.663 19.0753 251.824 19.1571L251.821 19.5506C251.817 20.1763 251.965 20.7726 252.264 21.3396C252.182 21.5005 252.13 21.6718 252.109 21.8533C252.088 22.0348 252.077 22.2063 252.076 22.3677C252.074 22.6099 252.083 22.8522 252.101 23.0945C252.12 23.3368 252.128 23.5689 252.127 23.7909C252.126 24.0331 252.094 24.2751 252.032 24.5169C251.99 24.7588 251.877 24.97 251.695 25.1505C251.673 25.4128 251.651 25.7154 251.628 26.0583C251.626 26.3812 251.604 26.7141 251.561 27.0569C251.539 27.3999 251.486 27.7326 251.404 28.055C251.321 28.3774 251.198 28.639 251.035 28.8398C251.013 29.1424 250.991 29.455 250.969 29.7778C250.967 30.0806 250.965 30.3732 250.963 30.6557C250.96 31.0997 250.977 31.6246 251.014 32.2303C251.07 32.8362 251.209 33.3416 251.428 33.7467C251.528 33.9087 251.719 34.0311 252.001 34.1136C252.303 34.1962 252.545 34.2381 252.727 34.2393C252.949 34.2407 253.171 34.2118 253.393 34.1527C253.636 34.0735 253.808 33.9434 253.91 33.7624C254.031 33.7834 254.112 33.8445 254.151 33.9456C254.191 34.0468 254.261 34.128 254.362 34.1891C255.515 33.7121 256.669 33.2552 257.822 32.8185C258.975 32.3819 260.108 31.8744 261.222 31.2962C261.383 31.378 261.554 31.4194 261.736 31.4206C261.938 31.4218 262.14 31.4029 262.342 31.3639C262.544 31.3248 262.746 31.3059 262.948 31.3072L263.16 31.3085C263.199 31.4299 263.219 31.5208 263.218 31.5814Z" fill="white"/>
<path d="M267.008 35.4503C267.006 35.753 266.944 36.0453 266.821 36.327C266.718 36.5888 266.596 36.8503 266.453 37.1118L266.024 37.8962C265.881 38.1577 265.768 38.4294 265.686 38.7115L265.565 38.6804C265.282 38.6786 265.01 38.7172 264.747 38.7963C264.484 38.8552 264.221 38.9242 263.958 39.0032C263.695 39.0823 263.422 39.1613 263.139 39.2402C262.877 39.3193 262.604 39.3579 262.321 39.3561C262.283 39.0733 262.204 38.8205 262.084 38.5977C261.944 38.3748 261.703 38.2623 261.359 38.2601C261.3 38.0983 261.271 37.9265 261.272 37.7449C261.253 37.5631 261.244 37.3915 261.245 37.2301C261.246 37.0484 261.237 36.8768 261.218 36.7152C261.179 36.5333 261.119 36.3614 261.04 36.1994C261.405 35.9192 261.709 35.5881 261.954 35.2062C262.199 34.8041 262.474 34.4426 262.778 34.1216C263.02 34.1837 263.272 34.2155 263.535 34.2172C263.837 34.2191 264.14 34.1908 264.443 34.1322C264.747 34.0534 265.05 34.0149 265.352 34.0169C265.675 34.0189 265.977 34.1016 266.259 34.2648C266.319 34.3661 266.359 34.4774 266.378 34.5986C266.397 34.7198 266.427 34.8411 266.466 34.9624C266.526 35.0637 266.586 35.1549 266.646 35.2361C266.727 35.3173 266.847 35.3584 267.009 35.3595L267.008 35.4503Z" fill="white"/>
<path d="M309.247 34.3869C309.205 34.6893 309.093 34.9207 308.91 35.081C308.747 35.2415 308.555 35.3916 308.332 35.5315C308.231 35.5106 308.13 35.4999 308.029 35.4993C307.949 35.4786 307.858 35.4679 307.757 35.4673C307.132 35.4431 306.536 35.52 305.969 35.6981C305.423 35.8763 304.857 36.0038 304.272 36.0808C304.07 36.1199 303.878 36.1389 303.696 36.1377C303.535 36.1165 303.363 36.1255 303.181 36.1647C302.535 36.2615 301.848 36.3379 301.121 36.3938C300.394 36.4497 299.667 36.5259 298.94 36.6221C298.213 36.6982 297.496 36.8047 296.788 36.9415C296.102 37.0582 295.455 37.2357 294.848 37.4741C294.787 37.4333 294.727 37.3926 294.667 37.3518C294.607 37.2909 294.536 37.2602 294.455 37.2596C294.254 37.2584 294.062 37.2874 293.88 37.3468C293.698 37.4062 293.516 37.4252 293.334 37.4039C293.132 37.5237 292.909 37.6131 292.667 37.6721C292.444 37.7111 292.212 37.7499 291.97 37.7888C291.747 37.8075 291.525 37.8465 291.303 37.9056C291.08 37.9648 290.868 38.0744 290.665 38.2346C290.504 38.1528 290.302 38.1112 290.06 38.1096C289.838 38.088 289.687 38.0064 289.608 37.8646C289.142 38.0836 288.647 38.2217 288.122 38.279C287.617 38.3363 287.102 38.3532 286.577 38.3297C286.234 38.3073 285.841 38.2544 285.398 38.1708C284.954 38.0873 284.511 37.9734 284.068 37.8293C283.625 37.6651 283.212 37.4808 282.83 37.2765C282.448 37.0521 282.157 36.7879 281.957 36.4838C281.817 36.2811 281.718 36.0585 281.659 35.8159C281.6 35.5734 281.459 35.3908 281.238 35.2683C281.302 34.8045 281.375 34.3509 281.459 33.9074C281.542 33.4639 281.626 33.0103 281.71 32.5466C282.115 32.2061 282.501 31.8453 282.867 31.4641C283.233 31.083 283.578 30.6815 283.904 30.2598C284.289 30.0806 284.643 29.8608 284.968 29.6005C285.312 29.3403 285.647 29.0801 285.972 28.8198C286.317 28.5394 286.651 28.2691 286.976 28.0088C287.321 27.7486 287.685 27.5188 288.07 27.3194C288.132 27.1785 288.213 27.068 288.315 26.988C288.436 26.8878 288.558 26.7978 288.68 26.7178C288.801 26.6177 288.913 26.5175 289.014 26.4172C289.116 26.2968 289.188 26.1559 289.229 25.9947C289.938 25.5754 290.557 25.0445 291.086 24.402C291.615 23.7595 291.962 23.0352 292.129 22.2289C291.788 21.9442 291.395 21.7601 290.952 21.6765C290.529 21.5729 290.085 21.4994 289.621 21.4561C289.218 21.4334 288.794 21.4307 288.35 21.448C287.926 21.4655 287.492 21.4527 287.048 21.4095C286.603 21.5479 286.139 21.6358 285.654 21.6731C285.189 21.7105 284.725 21.7479 284.261 21.7853C283.796 21.8025 283.332 21.8601 282.867 21.9581C282.422 22.036 281.987 22.1947 281.562 22.4342C281.481 22.4337 281.401 22.4231 281.32 22.4024C281.26 22.3818 281.189 22.3713 281.108 22.3707C280.463 22.3465 279.856 22.4738 279.289 22.7527C278.723 23.0115 278.166 23.2703 277.619 23.5292C277.579 23.6097 277.558 23.6701 277.558 23.7105C277.557 23.8316 277.576 23.9528 277.616 24.0742C277.676 24.1754 277.705 24.2866 277.705 24.4077C277.684 24.4278 277.674 24.4479 277.674 24.4681C277.674 24.4883 277.664 24.5084 277.643 24.5284C277.623 24.6292 277.592 24.7198 277.551 24.8003C277.53 24.8809 277.499 24.9715 277.458 25.0722C277.232 25.7166 277.107 26.3516 277.083 26.9771C277.059 27.5017 277.056 28.0163 277.073 28.521C277.09 29.0257 277.087 29.5403 277.063 30.0649C277.019 30.7105 276.914 31.3153 276.749 31.8793C276.847 32.3643 276.934 32.8796 277.012 33.425C277.089 33.9502 277.187 34.4756 277.304 35.0011C277.422 35.5266 277.56 36.0421 277.718 36.5477C277.897 37.0332 278.126 37.4989 278.406 37.9447C278.385 37.9849 278.395 38.0153 278.435 38.0357C278.476 38.0561 278.516 38.0665 278.556 38.0667L278.799 38.0683C278.899 38.0689 278.94 38.1095 278.919 38.1901C278.959 38.2509 278.989 38.3117 279.009 38.3724C279.028 38.4129 279.069 38.4535 279.129 38.4942C279.169 38.555 279.168 38.6358 279.127 38.7364C279.105 39.1399 279.001 39.5126 278.817 39.8546C278.634 40.1965 278.52 40.5692 278.477 40.9725C278.235 41.0316 278.013 41.0604 277.811 41.0591C277.468 41.0368 277.166 40.9339 276.904 40.7506C276.643 40.5875 276.402 40.3841 276.182 40.1405C275.961 39.897 275.751 39.6534 275.551 39.41C275.351 39.1463 275.13 38.9229 274.889 38.7397C274.751 38.1737 274.614 37.5472 274.477 36.8601C274.36 36.1732 274.152 35.5865 273.852 35.1002C273.934 34.9191 273.976 34.6974 273.978 34.435C274.001 34.0315 273.963 33.6377 273.864 33.2536C273.786 32.8494 273.768 32.4457 273.811 32.0423C273.813 31.8203 273.834 31.5984 273.876 31.3767C273.938 31.1551 273.98 30.9333 274.001 30.7115C274.024 30.3685 273.986 30.0352 273.887 29.7117C273.808 29.3883 273.78 29.0551 273.802 28.7121C273.823 28.5508 273.855 28.3996 273.896 28.2586C273.958 28.0975 274.039 27.9568 274.141 27.8363C274.041 27.5935 274.013 27.3612 274.054 27.1395C274.077 26.7965 274.119 26.4738 274.182 26.1715C274.244 25.8691 274.286 25.5667 274.309 25.2641C274.31 25.1026 274.3 24.9512 274.281 24.8098C274.262 24.6482 274.233 24.4967 274.193 24.3551L273.921 24.2626C273.8 24.2618 273.679 24.2913 273.558 24.3511C273.456 24.411 273.365 24.481 273.284 24.5613C273.202 24.6415 273.131 24.7117 273.07 24.7718C273.01 24.8118 272.949 24.8316 272.888 24.8312C272.848 24.831 272.798 24.8306 272.737 24.8302C272.697 24.8098 272.657 24.7995 272.616 24.7992C272.576 24.7989 272.495 24.8388 272.373 24.9188C272.272 24.9988 272.14 25.0888 271.978 25.1887C271.836 25.2685 271.694 25.3585 271.552 25.4585C271.411 25.5383 271.299 25.588 271.218 25.6077C270.997 25.5659 270.816 25.4941 270.675 25.3923C270.555 25.2705 270.434 25.1587 270.314 25.057C270.214 24.9353 270.103 24.8337 269.983 24.7522C269.862 24.6505 269.711 24.6092 269.529 24.6282C269.47 24.5067 269.44 24.3753 269.441 24.2341C269.422 24.0927 269.423 23.9514 269.444 23.8103L269.447 23.3259C269.59 23.0644 269.783 22.8537 270.026 22.6938C270.249 22.5136 270.492 22.3638 270.755 22.2443L271.545 21.8861C271.808 21.7667 272.051 21.6168 272.274 21.4366L272.547 21.4383C272.91 21.4608 273.223 21.3922 273.487 21.2324C273.77 21.0727 274.034 20.8928 274.277 20.6925C274.521 20.472 274.764 20.2516 275.008 20.0311C275.272 19.8108 275.555 19.641 275.859 19.5219C276.08 19.6242 276.312 19.7165 276.553 19.7988C276.795 19.8608 277.047 19.9028 277.309 19.9247C277.572 19.9263 277.844 19.8877 278.128 19.8088C278.411 19.7298 278.634 19.5799 278.796 19.3589C278.897 19.3999 278.978 19.4307 279.038 19.4513C279.119 19.4518 279.21 19.4524 279.31 19.453C279.613 19.4751 279.916 19.4367 280.219 19.3377C280.523 19.2185 280.816 19.0791 281.1 18.9194C281.504 18.9422 281.897 18.9245 282.281 18.8664C282.685 18.7883 283.079 18.71 283.463 18.6317C283.867 18.5536 284.261 18.4854 284.645 18.4273C285.049 18.3492 285.453 18.3215 285.857 18.3442C286.523 18.3686 287.179 18.3123 287.826 18.1751C288.472 18.0379 289.129 17.9917 289.794 18.0363C290.258 18.0594 290.712 18.1026 291.156 18.166C291.62 18.2093 292.084 18.2224 292.548 18.2051C292.81 18.3279 293.041 18.4404 293.242 18.5426C293.464 18.6247 293.736 18.6466 294.059 18.6083C294.702 19.1573 295.283 19.7968 295.803 20.5267L295.8 21.0413C295.777 21.5054 295.693 21.9589 295.549 22.402C295.405 22.8451 295.23 23.2881 295.026 23.7308C294.841 24.1534 294.637 24.576 294.412 24.9984C294.188 25.4006 293.973 25.8029 293.769 26.2052C292.449 27.3876 291.13 28.5599 289.811 29.7221C288.492 30.8843 287.132 32.0059 285.733 33.0869C285.691 33.2885 285.629 33.4697 285.548 33.6307C285.486 33.7917 285.445 33.963 285.423 34.1445C285.423 34.2454 285.432 34.3262 285.452 34.3869C285.593 34.4282 285.714 34.5097 285.814 34.6314C285.934 34.7331 285.974 34.8746 285.932 35.056L286.205 35.0577C286.305 35.0584 286.356 35.099 286.355 35.1798L286.839 35.2131C287.606 35.2584 288.373 35.2431 289.14 35.1672C289.908 35.0914 290.675 35.0054 291.443 34.9094C292.231 34.8135 293.008 34.7276 293.776 34.6518C294.543 34.5557 295.31 34.5001 296.078 34.4847C296.26 34.4254 296.452 34.3761 296.654 34.337C296.856 34.298 297.038 34.2184 297.2 34.0983L297.291 34.0989C297.432 34.0998 297.533 34.1408 297.593 34.2219C297.673 34.3032 297.784 34.3543 297.925 34.3754C298.026 34.376 298.127 34.3565 298.228 34.3168C298.349 34.2772 298.471 34.2477 298.592 34.2283C298.875 34.1493 299.168 34.1008 299.471 34.0825C299.794 34.0644 300.107 34.0361 300.41 33.9976C301.581 33.9042 302.742 33.851 303.892 33.8382C305.043 33.8051 306.194 33.6611 307.346 33.406C307.446 33.5479 307.587 33.6497 307.768 33.7114C307.95 33.753 308.141 33.8046 308.342 33.8665C308.544 33.9081 308.725 33.9597 308.886 34.0213C309.068 34.083 309.188 34.2048 309.247 34.3869Z" fill="white"/>
<path d="M319.508 34.8154C319.425 35.1176 319.292 35.3691 319.109 35.5697C318.926 35.7704 318.713 35.9507 318.47 36.1106C318.247 36.2706 318.004 36.4205 317.741 36.5601C317.477 36.6795 317.224 36.8192 316.981 36.9791L316.587 36.9766C315.74 36.9712 315.085 36.7652 314.624 36.3586C314.182 35.932 313.842 35.4151 313.604 34.8081C313.366 34.181 313.189 33.5138 313.072 32.8067C312.976 32.0997 312.848 31.453 312.691 30.8667C312.447 31.067 312.244 31.3079 312.081 31.5894C311.918 31.8507 311.744 32.112 311.561 32.3732C311.398 32.6346 311.205 32.8755 310.981 33.0961C310.778 33.3168 310.505 33.4665 310.161 33.545C310.099 33.6859 310.028 33.8267 309.946 33.9675C309.885 34.1084 309.844 34.2595 309.822 34.4208C309.377 34.6602 308.971 34.9401 308.606 35.2607C308.241 35.5813 307.875 35.912 307.51 36.2528C307.144 36.5936 306.769 36.9242 306.383 37.2447C306.018 37.5451 305.603 37.7947 305.137 37.9936C305.117 37.9733 305.077 37.963 305.017 37.9626C304.774 37.961 304.552 38.0202 304.349 38.14C304.147 38.2396 303.925 38.2886 303.682 38.2871C303.521 38.2861 303.37 38.2548 303.229 38.1934C303.108 38.1321 302.977 38.0606 302.837 37.979C302.716 37.8975 302.585 37.8361 302.444 37.7948C302.303 37.7536 302.152 37.7425 301.99 37.7617C301.791 37.3971 301.521 37.0624 301.179 36.7575C300.859 36.4325 300.659 36.068 300.581 35.6638C300.542 35.4819 300.513 35.3001 300.494 35.1183C300.495 34.9165 300.476 34.7146 300.437 34.5125C300.378 34.2094 300.299 33.9061 300.2 33.6028C300.102 33.2792 300.023 32.9558 299.964 32.6325C300.069 32.0882 300.173 31.4935 300.278 30.8483C300.363 30.1828 300.469 29.5276 300.594 28.8825C300.739 28.2174 300.925 27.5929 301.151 27.0091C301.397 26.4051 301.703 25.8924 302.069 25.4709L302.04 25.2588C302.042 24.9359 302.104 24.6336 302.227 24.3518C302.35 24.07 302.483 23.7984 302.626 23.5369C302.769 23.2755 302.892 23.0139 302.994 22.7521C303.097 22.4904 303.119 22.1979 303.06 21.8746C303.303 21.7551 303.556 21.6558 303.819 21.5767C304.082 21.4976 304.355 21.459 304.637 21.4608C304.899 21.4625 305.141 21.5044 305.363 21.5865C305.321 21.7477 305.391 21.8491 305.573 21.8906L305.572 21.9814C305.57 22.4052 305.516 22.8186 305.413 23.2216C305.31 23.6246 305.186 24.0275 305.042 24.4302C304.898 24.8128 304.755 25.2054 304.611 25.6082C304.487 25.9909 304.394 26.3838 304.331 26.7871C304.25 26.8068 304.189 26.8467 304.148 26.907C304.128 26.9674 304.107 27.0279 304.087 27.0883C304.066 27.1487 304.035 27.199 303.995 27.2391C303.954 27.2792 303.894 27.299 303.813 27.2985C303.687 28.004 303.552 28.7096 303.406 29.415C303.28 30.1005 303.215 30.7963 303.211 31.5027C303.208 31.9265 303.246 32.3607 303.324 32.8052C303.402 33.2497 303.55 33.6745 303.77 34.0796L303.891 34.0501C304.113 34.0515 304.284 34.103 304.405 34.2047C304.545 34.3065 304.726 34.4086 304.948 34.5109C305.109 34.4716 305.261 34.4221 305.403 34.3624C305.544 34.2826 305.606 34.1518 305.587 33.97C305.849 33.9515 306.072 33.8924 306.254 33.7926C306.436 33.6727 306.599 33.5425 306.741 33.4022L307.198 32.9812C307.36 32.841 307.552 32.7413 307.775 32.6822C307.776 32.5611 307.806 32.4704 307.867 32.4103L308.05 32.2298C308.111 32.1696 308.152 32.1093 308.172 32.0489C308.213 31.9685 308.224 31.8575 308.205 31.7161C308.447 31.6975 308.629 31.6381 308.751 31.538C308.893 31.4379 309.015 31.3277 309.116 31.2073C309.238 31.0668 309.35 30.9262 309.452 30.7856C309.554 30.6449 309.686 30.5247 309.848 30.4248C309.991 30.123 310.185 29.7205 310.431 29.2175C310.696 28.7147 310.952 28.1915 311.197 27.6482C311.463 27.1049 311.689 26.5917 311.873 26.1085C312.078 25.6052 312.182 25.2224 312.183 24.96C312.184 24.8591 312.154 24.7681 312.094 24.687C312.054 24.606 312.045 24.5151 312.066 24.4144L312.066 24.3235C312.229 24.1227 312.372 23.9016 312.494 23.6602C312.637 23.419 312.78 23.1878 312.923 22.9667C313.085 22.7457 313.258 22.545 313.441 22.3645C313.624 22.184 313.857 22.0442 314.14 21.9451C314.462 22.048 314.785 22.1207 315.107 22.1632C315.45 22.2057 315.773 22.2885 316.075 22.4115C316.092 22.9162 316.138 23.5018 316.215 24.1683C316.291 24.8348 316.429 25.4008 316.628 25.8663C316.626 26.1286 316.615 26.3808 316.593 26.6229C316.591 26.8651 316.59 27.1073 316.588 27.3494C316.586 27.7531 316.593 28.1669 316.611 28.5908C316.648 29.0149 316.716 29.4089 316.815 29.7728C316.672 30.0746 316.599 30.3971 316.597 30.7402C316.594 31.2044 316.662 31.6488 316.8 32.0735C316.939 32.4781 317.037 32.9126 317.095 33.3772C317.355 33.7421 317.697 33.926 318.121 33.9286C318.221 33.9293 318.302 33.9197 318.363 33.8999C318.444 33.8802 318.525 33.8505 318.606 33.8106C318.766 33.9933 318.906 34.1758 319.026 34.3582C319.166 34.5206 319.327 34.673 319.508 34.8154Z" fill="white"/>
<path d="M17 43.5258C17 54.3567 26.5 51 37 43.5258C50.0349 34.2473 57.5 40 57.5 40" stroke="white" stroke-width="2" stroke-linecap="round" stroke-linejoin="round"/>
<path d="M32.9046 18.1058C32.9046 7.95835 25.7808 0.920013 17 0.920013C8.21915 0.920013 1.0954 7.95835 1.0954 18.1058C1.0954 27.2796 9.9104 37.2904 15.4283 39.0671L14.1642 41.9713C14.0907 42.1395 14.0601 42.3233 14.0751 42.5062C14.0901 42.6892 14.1503 42.8655 14.2501 43.0196C14.35 43.1736 14.4865 43.3004 14.6473 43.3888C14.8082 43.4771 14.9885 43.5242 15.1721 43.5258H18.8279C19.0114 43.5242 19.1917 43.4771 19.3526 43.3888C19.5135 43.3004 19.65 43.1736 19.7498 43.0196C19.8497 42.8655 19.9098 42.6892 19.9248 42.5062C19.9398 42.3233 19.9092 42.1395 19.8358 41.9713L18.5717 39.0671C24.0896 37.2904 32.9046 27.2796 32.9046 18.1058Z" fill="#FF6196"/>
<path d="M17 8.4196C24.9267 8.4196 31.4867 13.2883 32.6825 20.5146C32.8157 19.7182 32.8899 18.9131 32.9046 18.1058C32.9046 7.95835 25.7808 0.920013 17 0.920013C8.21915 0.920013 1.0954 7.95835 1.0954 18.1058C1.11003 18.9131 1.18426 19.7182 1.31748 20.5146C2.51332 13.2883 9.07332 8.4196 17 8.4196Z" fill="#FF87AF"/>
<path d="M32.9046 18.1058C32.9046 7.95835 25.7808 0.920013 17 0.920013C8.21915 0.920013 1.0954 7.95835 1.0954 18.1058C1.0954 27.2796 9.9104 37.2904 15.4283 39.0671L14.1642 41.9713C14.0907 42.1395 14.0601 42.3233 14.0751 42.5062C14.0901 42.6892 14.1503 42.8655 14.2501 43.0196C14.35 43.1736 14.4865 43.3004 14.6473 43.3888C14.8082 43.4771 14.9885 43.5242 15.1721 43.5258H18.8279C19.0114 43.5242 19.1917 43.4771 19.3526 43.3888C19.5135 43.3004 19.65 43.1736 19.7498 43.0196C19.8497 42.8655 19.9098 42.6892 19.9248 42.5062C19.9398 42.3233 19.9092 42.1395 19.8358 41.9713L18.5717 39.0671C24.0896 37.2904 32.9046 27.2796 32.9046 18.1058Z" stroke="white" stroke-linecap="round" stroke-linejoin="round"/>
</svg>
