<svg width="34" height="45" viewBox="0 0 34 45" fill="none" xmlns="http://www.w3.org/2000/svg">
<path d="M32.9046 18.1058C32.9046 7.95825 25.7808 0.919922 17 0.919922C8.21917 0.919922 1.09542 7.95825 1.09542 18.1058C1.09542 27.2795 9.91042 37.2903 15.4283 39.067L14.1642 41.9712C14.0907 42.1394 14.0602 42.3232 14.0752 42.5061C14.0902 42.6891 14.1503 42.8655 14.2501 43.0195C14.35 43.1735 14.4865 43.3003 14.6474 43.3887C14.8083 43.477 14.9885 43.5241 15.1721 43.5258H18.8279C19.0115 43.5241 19.1917 43.477 19.3526 43.3887C19.5135 43.3003 19.65 43.1735 19.7499 43.0195C19.8497 42.8655 19.9098 42.6891 19.9248 42.5061C19.9398 42.3232 19.9093 42.1394 19.8358 41.9712L18.5717 39.067C24.0896 37.2903 32.9046 27.2795 32.9046 18.1058Z" fill="#FF6196"/>
<path d="M17 8.41951C24.9267 8.41951 31.4867 13.2883 32.6825 20.5145C32.8157 19.7182 32.89 18.913 32.9046 18.1058C32.9046 7.95825 25.7808 0.919922 17 0.919922C8.21917 0.919922 1.09542 7.95825 1.09542 18.1058C1.11005 18.913 1.18428 19.7182 1.3175 20.5145C2.51333 13.2883 9.07333 8.41951 17 8.41951Z" fill="#FF87AF"/>
<path d="M32.9046 18.1058C32.9046 7.95825 25.7808 0.919922 17 0.919922C8.21917 0.919922 1.09542 7.95825 1.09542 18.1058C1.09542 27.2795 9.91042 37.2903 15.4283 39.067L14.1642 41.9712C14.0907 42.1394 14.0602 42.3232 14.0752 42.5061C14.0902 42.6891 14.1503 42.8655 14.2501 43.0195C14.35 43.1735 14.4865 43.3003 14.6474 43.3887C14.8083 43.477 14.9885 43.5241 15.1721 43.5258H18.8279C19.0115 43.5241 19.1918 43.477 19.3526 43.3887C19.5135 43.3003 19.65 43.1735 19.7499 43.0195C19.8497 42.8655 19.9098 42.6891 19.9248 42.5061C19.9398 42.3232 19.9093 42.1394 19.8358 41.9712L18.5717 39.067C24.0896 37.2903 32.9046 27.2795 32.9046 18.1058Z" stroke="white" stroke-linecap="round" stroke-linejoin="round"/>
</svg>
